<?xml version="1.0" encoding="UTF-8"?>
<svg width="63px" height="54px" viewBox="0 0 63 54" version="1.1" xmlns="http://www.w3.org/2000/svg" xmlns:xlink="http://www.w3.org/1999/xlink">
    <title>np_arrow_1256499_356FB6</title>
    <g id="Phase-1-design" stroke="none" stroke-width="1" fill="none" fill-rule="evenodd">
        <g id="np_arrow_1256499_356FB6" fill="#356FB6" fill-rule="nonzero">
            <path d="M63,27 C63,25.9375 62.57812,24.9219 61.8281,24.1719 C61.07808,23.4219 60.0625,23 59,23 L15.129,23 L31.391,7.84 C32.21131,7.12906 32.7035,6.1134 32.7621,5.0275 C32.816787,3.9455 32.43007,2.883 31.6879,2.09 C30.94571,1.29703 29.9145,0.84 28.8285,0.820084689 C27.7426,0.804876 26.6957,1.23066 25.9301,2.0002 L2.2391,24.0702 C1.43051,24.82801 0.9696,25.8866 0.9696,26.996 C0.9696,28.1054 1.43054,29.164 2.2391,29.9218 L25.9301,51.9998 C27.5473,53.5076 30.0785,53.4217 31.5863,51.80449 C33.0941,50.19119 33.0043,47.65609 31.39099,46.14829 L15.12899,31.00029 L58.99999,31.00029 C60.06249,31.00029 61.07809,30.57841 61.82809,29.82839 C62.57809,29.07837 63,28.06279 63,27.00029 L63,27 Z" id="Path"></path>
        </g>
    </g>
</svg>
