<svg id="Layer_1" data-name="Layer 1" xmlns="http://www.w3.org/2000/svg" xmlns:xlink="http://www.w3.org/1999/xlink" width="1736.06mm" height="534.52mm" viewBox="0 0 4921.11 1515.17">
  <defs>
    <style>
      .cls-1 {
        fill: #dc491c;
      }

      .cls-2 {
        fill: url(#linear-gradient);
      }
    </style>
    <linearGradient id="linear-gradient" x1="231.02" y1="671.62" x2="478.8" y2="671.62" gradientUnits="userSpaceOnUse">
      <stop offset="0.07" stop-color="#888889"/>
      <stop offset="0.6" stop-color="#383838"/>
      <stop offset="1" stop-color="#0b1019"/>
    </linearGradient>
  </defs>
  <title>logo-recreated</title>
  <path d="M1885.45,869.45c0-231.27,150.9-415,383.81-415,137.78,0,216.51,54.13,280.48,134.5l-59,52.49c-57.46-78.71-129.63-109.86-216.56-109.86-185.35,0-298.52,147.62-298.52,337.89S2088.84,1209,2274.18,1209c86.93,0,159.1-32.8,216.51-111.53l59,52.49c-64,82-142.7,136.14-280.48,136.14C2036.35,1286.07,1885.45,1100.72,1885.45,869.45Z" transform="translate(-52.75 -53.01)"/>
  <path d="M2740,1113.84V172.36h85.29v928.36c0,64,26.24,108.25,82,108.25,37.73,0,70.53-18,88.57-37.73l32.8,65.61c-31.16,29.52-68.89,49.21-134.5,49.21C2790.85,1286.07,2740,1222.1,2740,1113.84Z" transform="translate(-52.75 -53.01)"/>
  <path d="M3136.93,283.89c0-36.08,31.16-64,65.61-64,36.08,0,65.61,27.88,65.61,64a65.8,65.8,0,0,1-65.61,65.61C3168.1,349.5,3136.93,320,3136.93,283.89Zm23,982.49V474.16h85.29v792.22Z" transform="translate(-52.75 -53.01)"/>
  <path d="M3596,1138.45v429.73h-85.29v-1094H3596V598.84c55.77-80.37,157.46-144.34,275.56-144.34,211.59,0,354.29,160.74,354.29,415,0,252.59-142.7,416.62-354.29,416.62C3760.08,1286.07,3660,1228.66,3596,1138.45Zm538-269c0-191.87-100-337.87-277.16-337.87-109.84,0-214.84,65.59-260.84,141v392c45.93,75.45,150.9,144.34,260.8,144.34C4034,1209,4134,1061.36,4134,869.45Z" transform="translate(-52.75 -53.01)"/>
  <path d="M4371.88,1159.77l50.85-62.33c50.85,64,144.34,116.46,255.87,116.46,132.86,0,211.59-68.89,211.59-160.74,0-216.51-500.27-93.49-500.27-378.89,0-121.38,103.33-219.79,282.12-219.79,136.14,0,226.35,52.49,283.76,116.46l-47.56,60.64c-45.93-62.33-131.22-105-236.19-105-123,0-196.83,62.33-196.83,144.34,0,198.47,498.63,77.09,498.63,382.17C4973.85,1181,4875.44,1286,4677,1286,4549,1286.07,4450.61,1248.34,4371.88,1159.77Z" transform="translate(-52.75 -53.01)"/>
  <g>
    <path d="M1381.92,471.55c-233.8,0-423.33,189.53-423.33,423.33s189.53,423.33,423.33,423.33,423.34-189.53,423.34-423.33S1615.72,471.55,1381.92,471.55Zm-.62,670c-135.55,0-245.43-109.88-245.43-245.43s109.88-245.43,245.43-245.43,245.43,109.88,245.43,245.43S1516.85,1141.59,1381.3,1141.59Z" transform="translate(-52.75 -53.01)"/>
    <path class="cls-1" d="M1477.05,880.49c-6.64-7.27-89-79.5-117.5-92.16-13.15-5.83-23.52-.26-28.41,13.79a98.28,98.28,0,0,0-3.62,17.82c-2.42,19-3.37,47.12-3.27,74.94-.1,27.83.85,55.94,3.27,74.94a98.49,98.49,0,0,0,3.62,17.83c4.89,14.05,15.26,19.62,28.41,13.78,28.5-12.65,110.86-84.89,117.5-92.15,3.79-4.15,6.8-8.73,6.53-14.4C1483.85,889.21,1480.84,884.63,1477.05,880.49Z" transform="translate(-52.75 -53.01)"/>
  </g>
  <g>
    <path d="M476.08,473.94a421.39,421.39,0,0,0-244.78,77.9v-479A19.9,19.9,0,0,0,211.46,53H72.59A19.89,19.89,0,0,0,52.75,72.85V890.33c0,.3,0,.6,0,.9q0,3,0,6c0,233.8,189.53,423.34,423.33,423.34s423.33-189.54,423.33-423.34S709.88,473.94,476.08,473.94Zm-.62,670C339.91,1144,230,1034.1,230,898.55c0-.45,1.28-25.17,1.28-25.17,12.6-123.73,117.11-220.26,244.16-220.26C611,653.12,720.89,763,720.89,898.55S611,1144,475.46,1144Z" transform="translate(-52.75 -53.01)"/>
    <path class="cls-2" d="M478.8,473.9c-91.2,0-177.93,26.55-247.78,77.9l1,317.53c17.85-126.88,120.85-216.21,246.16-216.26" transform="translate(-52.75 -53.01)"/>
  </g>
</svg>
