<?xml version="1.0" encoding="UTF-8"?>
<svg width="20px" height="12px" viewBox="0 0 100 56" version="1.1" xmlns="http://www.w3.org/2000/svg" xmlns:xlink="http://www.w3.org/1999/xlink">
    <title>np_link_3039256_00296B</title>
    <g id="Symbols" stroke="none" stroke-width="1" fill="none" fill-rule="evenodd">
        <g id="np_link_3039256_00296B" fill="#FFFFFF" fill-rule="nonzero">
            <path d="M38.891,55.777 L25,55.777 C11.215,55.777 0,44.562 0,30.777 L0,25.2223 C0,11.4373 11.215,0.2223 25,0.2223 L38.891,0.2223 C41.9613,0.2223 44.4457,2.7067 44.4457,5.777 C44.4457,8.8512 41.9613,11.3317 38.891,11.3317 L25,11.3317 C17.3398,11.3317 11.109,17.5622 11.109,25.2227 L11.109,30.7774 C11.109,38.4376 17.3395,44.6684 25,44.6684 L38.891,44.6684 C41.9613,44.6684 44.4457,47.1489 44.4457,50.2231 C44.4457,53.2934 41.9613,55.7778 38.891,55.7778 M75,55.7778 L61.109,55.7778 C58.0387,55.7778 55.5543,53.2934 55.5543,50.2231 C55.5543,47.1489 58.0387,44.6684 61.109,44.6684 L75,44.6684 C82.6602,44.6684 88.891,38.4379 88.891,30.7774 L88.891,25.2227 C88.891,17.5625 82.6605,11.3317 75,11.3317 L61.109,11.3317 C58.0387,11.3317 55.5543,8.8512 55.5543,5.777 C55.5543,2.7067 58.0387,0.2223 61.109,0.2223 L75,0.2223 C88.785,0.2223 100,11.4373 100,25.2223 L100,30.777 C100,44.562 88.785,55.777 75,55.777 M66.668,33.554 L33.332,33.554 C30.2773,33.554 27.7773,31.054 27.7773,27.9993 C27.7773,24.9446 30.2773,22.4446 33.332,22.4446 L66.668,22.4446 C69.7227,22.4446 72.2227,24.9446 72.2227,27.9993 C72.2227,31.054 69.7227,33.554 66.668,33.554" id="Shape"></path>
        </g>
    </g>
</svg>
