<svg width="121" height="95">
  <title>Empty welcome render</title>
  <g fill="none" fill-rule="evenodd">
    <path fill="#E8EFFF" d="M105.9179403 10H15v83.3153208L29.7292537 80.106717h90.9179403V10z"/>
    <path fill="#000" fill-rule="nonzero" d="M0 95V0h115.609096v74.65575H23.1269041L0 95zM4.56531507 4.541v80.2876667L21.2502466 70.11475h89.7919454V4.541H4.56531507z"/>
    <g fill="#000">
      <path d="M58.8888387 54.5605333h-5.4469032v-14.0384H39.45006452v14.0368H34V22.93013333h5.45006452V36.1093333H53.4419355V22.93013333h5.39V54.5605333z"/>
      <path fill-rule="nonzero" d="M64.7625161 24.95253333c-.0258614-.75605117.2605051-1.48885007.7903226-2.0224.5748356-.5784107 1.3722322-.87107227 2.1797097-.8.8074775-.07107227 1.6048741.2215893 2.1797097.8.5051329.54966002.7872917 1.2716916.7903225 2.0224.0366828.74009929-.2527806 1.45855452-.7903225 1.9616-.5814062.5678351-1.3738845.85869154-2.1797097.8-.8074775.07107228-1.6048741-.2215893-2.1797097-.8-.5145027-.51888433-.7995944-1.22648889-.7903226-1.9616zm5.5717742 29.59999997h-5.2082258V31.08213333h5.2003226l.0079032 23.47039997zM76.3897419 52.1077333c-.0366916-.7579042.2513533-1.4949981.7903226-2.0224.5869297-.558807 1.3753607-.848178 2.1797097-.8.804349-.048178 1.59278.241193 2.1797097.8 1.0498439 1.1394789 1.0498439 2.9069212 0 4.0464-.5869297.558807-1.3753607.848178-2.1797097.8-.8074775.0710723-1.6048741-.2215893-2.1797097-.8-.5055024-.5500653-.7876887-1.2727386-.7903226-2.024zm5.1465807-6.8048h-4.4811291l-.4836774-22.37279997h5.5085484l-.5437419 22.37279997z"/>
    </g>
  </g>
</svg>
