<svg width="24" height="24" viewBox="0 0 24 24" fill="none" xmlns="http://www.w3.org/2000/svg">
  <path
    d="M1.55069 1.55142C1.32565 1.77647 1.19922 2.08169 1.19922 2.39995V5.50315C1.19929 5.82138 1.32576 6.12656 1.55082 6.35155L9.24762 14.0484C9.47268 14.2733 9.59915 14.5785 9.59922 14.8968V22.8L14.3992 18V14.8968C14.3993 14.5785 14.5258 14.2733 14.7508 14.0484L22.4476 6.35155C22.6727 6.12656 22.7992 5.82138 22.7992 5.50315V2.39995C22.7992 2.08169 22.6728 1.77647 22.4477 1.55142C22.2227 1.32638 21.9175 1.19995 21.5992 1.19995H2.39922C2.08096 1.19995 1.77573 1.32638 1.55069 1.55142Z"
    stroke="#00217D" stroke-width="2" stroke-linecap="round" stroke-linejoin="round"/>
</svg>
