<?xml version="1.0" encoding="UTF-8"?>
<svg width="19px" height="19px" viewBox="0 0 19 19" version="1.1" xmlns="http://www.w3.org/2000/svg" xmlns:xlink="http://www.w3.org/1999/xlink">
    <title>C0C5D5DE-6804-43FE-906C-C3ED3185EB07</title>
    <g id="Phase-1-design" stroke="none" stroke-width="1" fill="none" fill-rule="evenodd">
        <g id="Buttons" transform="translate(-707.000000, -263.000000)" fill="#336FB6" fill-rule="nonzero">
            <g id="Filter-button" transform="translate(692.000000, 252.000000)">
                <g id="np_filters_1245150_45B870" transform="translate(15.000000, 11.000000)">
                    <path d="M5.57993104,0 C4.46394484,0 3.51580295,0.910006293 3.20846035,2.15715185 L0.669145331,2.15715185 C0.278996552,2.15715185 0,2.52854446 0,3 C0,3.47145554 0.307342602,3.84284815 0.69749138,3.84284815 L3.2368064,3.84284815 C3.51580295,5.08999371 4.49229088,6 5.60827709,6 C6.75260935,6 7.70075123,5.08999371 8.00809384,3.84284815 L18.3025086,3.84284815 C18.6926574,3.84284815 19,3.47145554 19,3 C19,2.52854446 18.6926574,2.15715185 18.3025086,2.15715185 L8.00809384,2.15715185 C7.67243308,0.910006293 6.7242633,0 5.57995894,0 L5.57993104,0 Z M5.60826593,1.6856963 C6.19460509,1.6856963 6.69590609,2.25856334 6.69590609,3 C6.69590609,3.74143666 6.1934891,4.3143037 5.60826593,4.3143037 C5.02192678,4.3143037 4.52062401,3.74143666 4.52062401,3 C4.51953601,2.25856334 5.02195468,1.6856963 5.60826593,1.6856963 L5.60826593,1.6856963 Z" id="Shape"></path>
                    <path d="M13.9781211,7 C12.862148,7 11.9140172,7.91000629 11.6066782,9.15715185 L0.697483187,9.15715185 C0.278993275,9.15715185 0,9.52854446 0,10 C0,10.4714555 0.307338992,10.8428482 0.697483187,10.8428482 L11.6066782,10.8428482 C11.8856715,12.0899937 12.862148,13 13.9781211,13 C15.1224399,13 16.0705706,12.0899937 16.3779096,10.8428482 L18.3025168,10.8428482 C18.692661,10.8428482 19,10.4714555 19,10 C19,9.52854446 18.692661,9.15715185 18.3025168,9.15715185 L16.3779096,9.15715185 C16.0705706,7.91000629 15.1213518,7 13.9781211,7 Z M14.0053667,8.6856963 C14.591699,8.6856963 15.0929941,9.25856334 15.0929941,10 C15.0929941,10.7414367 14.590583,11.3143037 14.0053667,11.3143037 C13.4190344,11.3143037 12.9177393,10.7414367 12.9177393,10 C12.9177393,9.25856334 13.3918047,8.6856963 14.0053667,8.6856963 Z" id="Shape"></path>
                    <path d="M8.92783723,13 C7.81185758,13 6.86372126,13.9100063 6.55638047,15.1571518 L0.697487284,15.1571518 C0.278994913,15.1571518 0,15.5285445 0,16 C0,16.4714555 0.307340797,16.8428482 0.697487284,16.8428482 L6.58483795,16.8428482 C6.86383286,18.0899937 7.84031506,19 8.95629471,19 C10.1006202,19 11.0487566,18.0899937 11.3560974,16.8428482 L18.3025127,16.8428482 C18.6926592,16.8428482 19,16.4714555 19,16 C19,15.5285445 18.6926592,15.1571518 18.3025127,15.1571518 L11.3276399,15.1571518 C11.0202991,13.9100063 10.0721628,13 8.92783723,13 Z M8.95617195,14.6856963 C9.54250767,14.6856963 10.0438057,15.2585633 10.0438057,16 C10.0438057,16.7414367 9.54139169,17.3143037 8.95617195,17.3143037 C8.36983624,17.3143037 7.86853818,16.7414367 7.86853818,16 C7.89578371,15.2585633 8.36986414,14.6856963 8.95617195,14.6856963 Z" id="Shape"></path>
                </g>
            </g>
        </g>
    </g>
</svg>