<svg width="372" height="335" viewBox="0 0 372 335" fill="none" xmlns="http://www.w3.org/2000/svg">
  <path fill-rule="evenodd" clip-rule="evenodd" d="M185.975 136.778H353.724C354.03 136.778 354.277 136.539 354.277 136.244V24.6367C354.277 24.3419 354.03 24.103 353.724 24.103H185.975C185.67 24.103 185.422 24.3419 185.422 24.6367V136.244C185.422 136.539 185.67 136.778 185.975 136.778ZM353.172 135.711H186.529V25.1705H353.172V135.711Z" fill="#001550"/>
  <path d="M186.529 135.711H186.029V136.211H186.529V135.711ZM353.172 135.711V136.211H353.672V135.711H353.172ZM186.529 25.1705V24.6705H186.029V25.1705H186.529ZM353.172 25.1705H353.672V24.6705H353.172V25.1705ZM353.724 136.278H185.975V137.278H353.724V136.278ZM353.777 136.244C353.777 136.248 353.777 136.254 353.768 136.262C353.759 136.271 353.745 136.278 353.724 136.278V137.278C354.289 137.278 354.777 136.832 354.777 136.244H353.777ZM353.777 24.6367V136.244H354.777V24.6367H353.777ZM353.724 24.603C353.745 24.603 353.759 24.6106 353.768 24.6191C353.777 24.6273 353.777 24.6332 353.777 24.6367H354.777C354.777 24.0492 354.289 23.603 353.724 23.603V24.603ZM185.975 24.603H353.724V23.603H185.975V24.603ZM185.922 24.6367C185.922 24.6332 185.923 24.6273 185.932 24.6191C185.94 24.6106 185.955 24.603 185.975 24.603V23.603C185.411 23.603 184.922 24.0492 184.922 24.6367H185.922ZM185.922 136.244V24.6367H184.922V136.244H185.922ZM185.975 136.278C185.955 136.278 185.94 136.271 185.932 136.262C185.923 136.254 185.922 136.248 185.922 136.244H184.922C184.922 136.832 185.411 137.278 185.975 137.278V136.278ZM186.529 136.211H353.172V135.211H186.529V136.211ZM186.029 25.1705V135.711H187.029V25.1705H186.029ZM353.172 24.6705H186.529V25.6705H353.172V24.6705ZM353.672 135.711V25.1705H352.672V135.711H353.672Z" fill="#001550"/>
  <path fill-rule="evenodd" clip-rule="evenodd" d="M333.086 36.5822C333.086 38.8698 335.007 40.7242 337.377 40.7242C339.747 40.7242 341.669 38.8698 341.669 36.5822C341.669 34.2947 339.747 32.4403 337.377 32.4403C335.007 32.4403 333.086 34.2947 333.086 36.5822ZM334.192 36.5821C334.192 34.8842 335.618 33.5077 337.377 33.5077C339.136 33.5077 340.562 34.8842 340.562 36.5821C340.562 38.2801 339.136 39.6565 337.377 39.6565C335.618 39.6565 334.192 38.2801 334.192 36.5821Z" fill="#001550"/>
  <path d="M337.377 40.2242C335.267 40.2242 333.586 38.5771 333.586 36.5822H332.586C332.586 39.1624 334.748 41.2242 337.377 41.2242V40.2242ZM341.169 36.5822C341.169 38.5771 339.488 40.2242 337.377 40.2242V41.2242C340.007 41.2242 342.169 39.1624 342.169 36.5822H341.169ZM337.377 32.9403C339.488 32.9403 341.169 34.5874 341.169 36.5822H342.169C342.169 34.002 340.007 31.9403 337.377 31.9403V32.9403ZM333.586 36.5822C333.586 34.5874 335.267 32.9403 337.377 32.9403V31.9403C334.748 31.9403 332.586 34.002 332.586 36.5822H333.586ZM337.377 33.0077C335.359 33.0077 333.692 34.5915 333.692 36.5821H334.692C334.692 35.1769 335.877 34.0077 337.377 34.0077V33.0077ZM341.062 36.5821C341.062 34.5915 339.396 33.0077 337.377 33.0077V34.0077C338.877 34.0077 340.062 35.1769 340.062 36.5821H341.062ZM337.377 40.1565C339.396 40.1565 341.062 38.5728 341.062 36.5821H340.062C340.062 37.9874 338.877 39.1565 337.377 39.1565V40.1565ZM333.692 36.5821C333.692 38.5728 335.359 40.1565 337.377 40.1565V39.1565C335.877 39.1565 334.692 37.9874 334.692 36.5821H333.692Z" fill="#001550"/>
  <path d="M327.711 36.5823C327.711 38.575 326.037 40.1905 323.973 40.1905C321.908 40.1905 320.235 38.575 320.235 36.5823C320.235 34.5896 321.908 32.9741 323.973 32.9741C326.037 32.9741 327.711 34.5896 327.711 36.5823Z" fill="#001550" stroke="#001550"/>
  <path d="M314.306 36.5823C314.306 38.575 312.633 40.1905 310.568 40.1905C308.503 40.1905 306.83 38.575 306.83 36.5823C306.83 34.5896 308.503 32.9741 310.568 32.9741C312.633 32.9741 314.306 34.5896 314.306 36.5823Z" fill="#001550" stroke="#001550"/>
  <rect x="197.732" y="49.2535" width="145.087" height="77.8212" fill="#FFC966"/>
  <path fill-rule="evenodd" clip-rule="evenodd" d="M277.764 112.856H277.93V112.866C294.141 112.91 307.32 100.262 307.366 84.6147C307.412 68.9676 294.307 56.2472 278.095 56.203H277.918C261.929 56.4591 249.094 69.0213 249.052 84.456C249.01 99.8907 261.776 112.518 277.764 112.856ZM250.158 84.4454C250.2 69.5962 262.546 57.5102 277.929 57.26L278.095 57.2493C293.696 57.2906 306.308 69.5306 306.265 84.5881C306.222 99.6457 293.541 111.819 277.94 111.777H277.774C262.393 111.446 250.116 99.2947 250.158 84.4454Z" fill="white"/>
  <path d="M271.913 72.0233L271.758 97.985L291.478 85.0148L271.913 72.0233Z" fill="white"/>
  <path d="M221.711 333.466C220.516 312.938 219.698 298.719 219.698 298.719C143.67 316.493 102.527 287.958 102.527 287.958C102.527 287.958 99.2085 308.166 94.9835 333.466H221.711Z" fill="#001550"/>
  <path fill-rule="evenodd" clip-rule="evenodd" d="M94.9837 334H221.711V333.989C221.862 333.987 222.006 333.925 222.11 333.819C222.214 333.712 222.27 333.57 222.264 333.424C221.058 312.895 220.24 298.687 220.24 298.687C220.236 298.526 220.154 298.375 220.018 298.281C219.888 298.189 219.722 298.158 219.565 298.196C144.688 315.703 103.268 287.809 102.848 287.521C102.693 287.414 102.491 287.394 102.317 287.467C102.142 287.54 102.018 287.693 101.985 287.873C101.985 287.873 98.6557 308.081 94.4418 333.381C94.4178 333.533 94.4621 333.689 94.5635 333.808C94.6665 333.93 94.8209 334 94.9837 334ZM221.158 332.932H95.6364C97.2691 323.135 98.764 314.126 99.9812 306.79C101.501 297.628 102.588 291.077 102.969 288.866C108.853 292.495 149.654 315.404 219.211 299.391C219.331 301.523 219.758 308.861 220.374 319.458C220.61 323.509 220.873 328.037 221.158 332.932Z" fill="#001550"/>
  <g opacity="0.6">
    <path fill-rule="evenodd" clip-rule="evenodd" d="M94.9837 333.737H221.711V333.726C221.862 333.723 222.006 333.662 222.11 333.556C222.214 333.451 222.27 333.309 222.264 333.164C221.058 312.751 220.24 298.623 220.24 298.623C220.236 298.463 220.154 298.313 220.018 298.22C219.888 298.128 219.722 298.097 219.565 298.135C144.688 315.543 103.268 287.807 102.848 287.52C102.693 287.414 102.491 287.394 102.317 287.467C102.142 287.539 102.018 287.691 101.985 287.871C101.985 287.871 98.6557 307.964 94.4418 333.121C94.4178 333.273 94.4621 333.427 94.5635 333.546C94.6665 333.667 94.8209 333.737 94.9837 333.737ZM221.158 332.675H95.6364C97.2691 322.934 98.7641 313.975 99.9813 306.681C101.502 297.57 102.588 291.056 102.969 288.858C108.853 292.467 149.654 315.246 219.211 299.324C219.331 301.443 219.758 308.74 220.374 319.276C220.61 323.305 220.873 327.807 221.158 332.675Z" fill="#001550"/>
    <path d="M221.711 333.737V334.237H222.211V333.737H221.711ZM94.9837 333.737V333.237L94.9832 333.237L94.9837 333.737ZM221.711 333.726L221.702 333.226L221.211 333.235V333.726H221.711ZM222.11 333.556L222.467 333.907L222.467 333.907L222.11 333.556ZM222.264 333.164L222.763 333.143L222.763 333.134L222.264 333.164ZM220.24 298.623L219.74 298.634L219.74 298.643L219.741 298.652L220.24 298.623ZM220.018 298.22L219.731 298.629L219.735 298.632L220.018 298.22ZM219.565 298.135L219.678 298.622L219.683 298.621L219.565 298.135ZM102.848 287.52L102.565 287.933L102.566 287.933L102.848 287.52ZM102.317 287.467L102.508 287.929L102.51 287.928L102.317 287.467ZM101.985 287.871L101.493 287.781L101.492 287.789L101.985 287.871ZM94.4418 333.121L93.9487 333.039L93.9479 333.043L94.4418 333.121ZM94.5635 333.546L94.9442 333.222L94.9435 333.221L94.5635 333.546ZM95.6364 332.675L95.1433 332.593L95.0456 333.175H95.6364V332.675ZM221.158 332.675V333.175H221.688L221.657 332.646L221.158 332.675ZM99.9813 306.681L99.4881 306.598L99.9813 306.681ZM102.969 288.858L103.231 288.431L102.602 288.046L102.477 288.772L102.969 288.858ZM219.211 299.324L219.71 299.296L219.677 298.704L219.1 298.836L219.211 299.324ZM220.374 319.276L219.875 319.306L220.374 319.276ZM221.711 333.237H94.9837V334.237H221.711V333.237ZM221.211 333.726V333.737H222.211V333.726H221.211ZM221.754 333.206C221.744 333.216 221.725 333.226 221.702 333.226L221.72 334.226C221.999 334.221 222.269 334.108 222.467 333.907L221.754 333.206ZM221.764 333.184C221.764 333.188 221.763 333.196 221.754 333.206L222.467 333.907C222.666 333.705 222.775 333.43 222.763 333.143L221.764 333.184ZM220.24 298.623C219.741 298.652 219.741 298.652 219.741 298.652C219.741 298.652 219.741 298.653 219.741 298.653C219.741 298.653 219.741 298.654 219.741 298.655C219.741 298.656 219.741 298.659 219.741 298.662C219.742 298.669 219.742 298.68 219.743 298.693C219.745 298.721 219.747 298.762 219.75 298.816C219.756 298.924 219.766 299.086 219.778 299.299C219.803 299.725 219.839 300.357 219.887 301.179C219.983 302.822 220.123 305.226 220.3 308.268C220.656 314.352 221.162 322.987 221.765 333.193L222.763 333.134C222.16 322.928 221.654 314.293 221.299 308.21C221.121 305.168 220.981 302.764 220.886 301.121C220.838 300.299 220.801 299.667 220.776 299.241C220.764 299.028 220.755 298.866 220.748 298.758C220.745 298.704 220.743 298.663 220.741 298.635C220.74 298.622 220.74 298.612 220.739 298.605C220.739 298.601 220.739 298.599 220.739 298.597C220.739 298.596 220.739 298.595 220.739 298.595C220.739 298.595 220.739 298.595 220.739 298.594C220.739 298.594 220.739 298.594 220.24 298.623ZM219.735 298.632C219.739 298.634 219.74 298.637 219.74 298.637C219.74 298.637 219.74 298.636 219.74 298.634L220.74 298.612C220.733 298.286 220.566 297.99 220.302 297.808L219.735 298.632ZM219.683 298.621C219.702 298.616 219.72 298.621 219.731 298.629L220.306 297.811C220.057 297.635 219.742 297.578 219.447 297.649L219.683 298.621ZM102.566 287.933C103.068 288.276 144.63 316.07 219.678 298.622L219.452 297.648C144.746 315.016 103.468 287.338 103.129 287.107L102.566 287.933ZM102.51 287.928C102.529 287.92 102.552 287.924 102.565 287.933L103.13 287.107C102.833 286.905 102.453 286.868 102.124 287.006L102.51 287.928ZM102.477 287.96C102.478 287.955 102.484 287.939 102.508 287.929L102.125 287.005C101.801 287.14 101.558 287.427 101.493 287.781L102.477 287.96ZM94.9349 333.204C97.0419 320.625 98.9277 309.312 100.287 301.144C100.966 297.06 101.514 293.762 101.892 291.485C102.081 290.347 102.228 289.463 102.327 288.865C102.376 288.566 102.414 288.337 102.44 288.184C102.452 288.107 102.462 288.049 102.468 288.011C102.472 287.991 102.474 287.977 102.476 287.967C102.476 287.962 102.477 287.958 102.477 287.956C102.478 287.955 102.478 287.954 102.478 287.953C102.478 287.953 102.478 287.953 102.478 287.952C102.478 287.952 102.478 287.952 101.985 287.871C101.492 287.789 101.492 287.789 101.491 287.789C101.491 287.789 101.491 287.789 101.491 287.79C101.491 287.79 101.491 287.791 101.491 287.792C101.491 287.795 101.49 287.799 101.489 287.803C101.487 287.813 101.485 287.828 101.482 287.847C101.475 287.886 101.466 287.944 101.453 288.021C101.428 288.174 101.39 288.402 101.34 288.701C101.241 289.3 101.095 290.183 100.906 291.321C100.528 293.598 99.9798 296.896 99.3003 300.98C97.9413 309.148 96.0556 320.46 93.9487 333.039L94.9349 333.204ZM94.9435 333.221C94.9392 333.216 94.9372 333.211 94.9363 333.208C94.9354 333.205 94.9352 333.202 94.9357 333.199L93.9479 333.043C93.9007 333.342 93.9887 333.643 94.1835 333.871L94.9435 333.221ZM94.9832 333.237C94.9629 333.237 94.9495 333.228 94.9442 333.222L94.1827 333.87C94.3835 334.106 94.6788 334.237 94.9843 334.237L94.9832 333.237ZM95.6364 333.175H221.158V332.175H95.6364V333.175ZM99.4881 306.598C98.2709 313.893 96.776 322.851 95.1433 332.593L96.1295 332.758C97.7623 323.016 99.2573 314.057 100.474 306.763L99.4881 306.598ZM102.477 288.772C102.095 290.973 101.008 297.489 99.4881 306.598L100.474 306.763C101.995 297.651 103.081 291.14 103.462 288.943L102.477 288.772ZM219.1 298.836C149.701 314.722 109.033 291.99 103.231 288.431L102.708 289.284C108.674 292.943 149.608 315.769 219.323 299.811L219.1 298.836ZM220.873 319.247C220.257 308.71 219.83 301.414 219.71 299.296L218.712 299.352C218.832 301.472 219.259 308.769 219.875 319.306L220.873 319.247ZM221.657 332.646C221.372 327.778 221.109 323.276 220.873 319.247L219.875 319.306C220.111 323.334 220.374 327.837 220.659 332.704L221.657 332.646Z" fill="#001550"/>
  </g>
  <path d="M3.94755 132.679C3.83695 135.999 1.61386 138.988 1.53644 142.287C1.47008 145.382 3.28394 148.201 3.90331 151.232C4.56692 154.499 3.90331 157.851 4.33465 161.128C4.63872 163.242 5.23771 165.307 6.11533 167.266C6.75336 168.811 7.80718 170.164 9.16793 171.184C11.38 172.764 14.5321 172.7 17.1976 172.7C19.9539 172.851 22.6822 172.099 24.9397 170.565C26.63 169.09 27.9986 167.304 28.9656 165.313C30.0164 163.774 30.6653 162.012 30.8568 160.178C30.8414 159.139 30.616 158.113 30.1932 157.157C27.9812 151.916 22.4511 148.179 21.5221 142.607C21.1239 140.226 21.6327 137.803 21.8539 135.412C22.0751 133.021 21.9313 130.405 20.4271 128.473C17.9386 125.271 12.1099 124.598 8.261 124.609C2.64245 124.619 4.09133 128.719 3.94755 132.679Z" fill="white" stroke="#001550" stroke-width="2"/>
  <path fill-rule="evenodd" clip-rule="evenodd" d="M8.90272 171.632C11.0926 173.17 13.9572 173.244 16.5453 173.244V173.202H17.2863C20.1699 173.36 23.0229 172.561 25.3712 170.938C27.1126 169.409 28.5288 167.567 29.5409 165.516C30.6304 163.915 31.3021 162.084 31.4986 160.178C31.4788 159.076 31.2385 157.989 30.7907 156.975C29.7219 154.699 28.3378 152.573 26.6763 150.656C24.6081 148.051 22.6615 145.585 22.1527 142.543C21.9482 140.783 21.9966 139.005 22.2965 137.259C22.374 136.671 22.4403 136.074 22.4956 135.476C22.7942 132.22 22.3076 129.904 20.9583 128.174C18.1822 124.598 11.889 124.096 8.32759 124.096C6.94168 123.978 5.56629 124.414 4.5229 125.303C3.2663 126.537 3.33896 128.46 3.41611 130.502L3.41689 130.523V132.658C3.27766 134.241 2.88206 135.794 2.24452 137.259C0.562163 140.637 0.586644 144.575 2.31088 147.934C2.76644 149.044 3.13612 150.186 3.41689 151.35C3.69715 153.083 3.78982 154.839 3.6934 156.591C3.61858 158.133 3.67035 159.679 3.84824 161.213C4.15435 163.376 4.76459 165.487 5.6621 167.49C6.33984 169.125 7.45879 170.556 8.90272 171.632ZM3.32882 137.6C3.99881 136.031 4.41294 134.371 4.55649 132.679L4.52331 132.722C4.56769 132.215 4.55271 131.708 4.53792 131.207C4.53059 130.96 4.52331 130.713 4.52331 130.469C4.44589 128.569 4.39059 126.936 5.28646 126.029C6.1292 125.363 7.21142 125.048 8.29482 125.153C10.9603 125.185 17.4637 125.484 20.0407 128.804C21.213 130.309 21.6333 132.391 21.3568 135.369C21.3236 135.81 21.2718 136.25 21.22 136.69C21.2027 136.837 21.1854 136.984 21.1688 137.131C20.8554 138.973 20.807 140.848 21.025 142.703C21.5891 145.905 23.7126 148.649 25.7588 151.243C27.3626 153.084 28.6984 155.127 29.7293 157.317C30.127 158.208 30.3412 159.165 30.3598 160.135C30.1632 161.879 29.5375 163.551 28.5348 165.014C27.5992 166.944 26.2803 168.677 24.6527 170.117C22.5 171.592 19.8888 172.311 17.2535 172.155H16.9328C14.4221 172.155 11.5686 172.155 9.55567 170.746C8.26895 169.784 7.27541 168.504 6.68004 167.042C5.82369 165.131 5.23957 163.116 4.9436 161.053C4.77419 159.572 4.72611 158.08 4.79981 156.591C4.90404 154.764 4.80392 152.932 4.50119 151.126C4.22487 149.909 3.85518 148.713 3.39518 147.549C1.74849 144.429 1.72389 140.741 3.32882 137.6Z" fill="#001550"/>
  <path d="M11.126 172.113L14.8201 200.412C14.8201 200.412 35.7016 195.459 41.8621 187.506L30.0167 162.356" fill="white"/>
  <path d="M11.126 172.113L14.8201 200.412C14.8201 200.412 35.7016 195.459 41.8621 187.506L30.0167 162.356" stroke="#001550"/>
  <path d="M14.8196 200.946C14.7052 200.946 14.5935 200.912 14.4989 200.85C14.3699 200.763 14.2854 200.627 14.2666 200.476L10.5725 172.177C10.5333 171.885 10.746 171.618 11.0481 171.579C11.1955 171.558 11.3454 171.596 11.4626 171.685C11.5798 171.774 11.6539 171.905 11.6675 172.049L15.2841 199.74C18.7017 198.864 35.6127 194.253 41.2202 187.431L29.5075 162.58C29.3882 162.308 29.5096 161.994 29.784 161.865C30.0619 161.744 30.3883 161.864 30.5139 162.132L42.3704 187.282C42.4491 187.462 42.4239 187.669 42.304 187.826C36.0993 195.833 15.7597 200.722 14.9413 200.925L14.8196 200.946Z" fill="#001550" stroke="#001550"/>
  <path d="M49.2059 189.46L55.842 203.764L124.127 165.014L137.101 148.307L146.037 169.284L127.788 210.532C113.545 220.153 98.5677 228.718 82.9835 236.153C75.5548 239.806 67.9311 243.077 60.1444 245.952C52.7009 248.642 44.9477 250.478 37.272 252.453C36.7511 252.64 36.1782 252.64 35.6572 252.453C35.3144 252.283 35.1706 251.877 34.8609 251.631C29.2424 247.265 15.1518 208.344 13.7029 195.95L49.2059 189.46Z" fill="#10B981" stroke="#001550" stroke-width="2"/>
  <path d="M232.892 132.807L264.48 176.158C272.251 186.824 272.954 200.859 266.283 212.197C254.117 232.907 234.662 264.505 224.52 273.643C224.52 273.643 229.254 282.994 228.535 286.453C227.816 289.912 221.135 290.616 221.135 290.616L231.41 307.632C231.41 307.632 175.678 355.19 97.2842 293.413L113.598 238.223L104.96 232.267L139.611 120.552L175.225 116.859L186.053 144.528L197.743 131.184L209.478 144.528L232.892 132.807Z" fill="#10B981" stroke="#001550" stroke-width="2"/>
  <path d="M230.526 197.242C230.289 197.243 230.078 197.097 230.006 196.879C229.91 196.599 230.062 196.296 230.349 196.196C239.949 192.993 248.874 191.595 261.151 191.21C261.456 191.21 261.709 191.44 261.726 191.734C261.729 191.875 261.674 192.012 261.572 192.114C261.47 192.216 261.331 192.275 261.184 192.278C249.018 192.662 240.17 194.093 230.703 197.21C230.646 197.232 230.586 197.243 230.526 197.242Z" fill="#001550" stroke="#001550"/>
  <path d="M201.47 300.246C201.261 300.241 201.071 300.124 200.978 299.942C200.885 299.761 200.904 299.545 201.028 299.381C206.568 292.363 213.895 286.846 222.296 283.368C222.574 283.267 222.886 283.395 223.002 283.659C223.118 283.923 222.997 284.228 222.728 284.35C214.507 287.741 207.336 293.129 201.913 299.989C201.817 300.139 201.652 300.234 201.47 300.246Z" fill="#001550" stroke="#001550"/>
  <path d="M50.4449 225.862C50.3715 225.872 50.297 225.872 50.2237 225.862C49.9467 225.74 49.8158 225.431 49.9251 225.157C52.5676 219.069 54.3028 212.65 55.0791 206.091C55.1127 205.797 55.3875 205.584 55.6929 205.616C55.9983 205.649 56.2187 205.914 56.1851 206.209C55.3901 212.868 53.6291 219.387 50.9536 225.573C50.8538 225.754 50.6572 225.866 50.4449 225.862Z" fill="#001550" stroke="#001550"/>
  <path d="M62.6105 219.691H62.5441C62.2424 219.658 62.0251 219.396 62.0575 219.104C62.5478 214.713 61.403 210.297 58.8279 206.647C58.6557 206.404 58.7145 206.073 58.9607 205.899C59.0821 205.818 59.2323 205.786 59.3778 205.812C59.5233 205.838 59.6519 205.92 59.7349 206.038C62.4719 209.913 63.6875 214.602 63.1635 219.264C63.1063 219.515 62.876 219.692 62.6105 219.691Z" fill="#001550" stroke="#001550"/>
  <path d="M127.301 192.278C127.239 192.288 127.175 192.288 127.113 192.278C126.976 192.232 126.864 192.135 126.802 192.009C126.739 191.882 126.732 191.737 126.781 191.605C128.241 187.56 137.841 165.195 141.325 157.2C141.397 157.017 141.567 156.886 141.768 156.86C141.969 156.834 142.168 156.915 142.288 157.073C142.408 157.231 142.429 157.439 142.343 157.616C138.903 165.388 129.248 188.019 127.821 191.958C127.731 192.156 127.526 192.283 127.301 192.278Z" fill="#001550" stroke="#001550"/>
  <path d="M197.744 251.663C197.491 251.667 197.267 251.504 197.202 251.268L193.508 237.924L135.564 204.832C135.307 204.679 135.224 204.356 135.378 204.105C135.532 203.855 135.866 203.769 136.128 203.914L194.26 237.102C194.385 237.173 194.476 237.288 194.514 237.423L197.191 247.03V235.619C197.191 235.495 197.233 235.375 197.312 235.277L222.076 205.803C222.273 205.576 222.622 205.543 222.861 205.728C222.976 205.816 223.049 205.945 223.064 206.086C223.078 206.227 223.033 206.368 222.939 206.476L198.297 235.8V251.129C198.294 251.399 198.087 251.626 197.81 251.663H197.744Z" fill="#001550" stroke="#001550"/>
  <path d="M200.464 288.492C200.368 288.493 200.273 288.471 200.188 288.428L132.986 252.133C132.857 252.065 132.761 251.951 132.719 251.814C132.678 251.678 132.694 251.532 132.765 251.407C132.919 251.15 133.259 251.059 133.528 251.204L200.431 287.297L216.258 276.429C216.507 276.261 216.849 276.313 217.032 276.547C217.118 276.663 217.152 276.807 217.127 276.947C217.102 277.088 217.02 277.212 216.9 277.294L200.785 288.364C200.694 288.438 200.582 288.482 200.464 288.492Z" fill="#001550" stroke="#001550"/>
  <ellipse cx="79.6039" cy="123.667" rx="60.9521" ry="60.0817" fill="#001550"/>
  <ellipse cx="81.8442" cy="122.111" rx="60.6869" ry="58.574" fill="#FFC966" stroke="#001550"/>
  <path fill-rule="evenodd" clip-rule="evenodd" d="M20.5933 122.079C20.5811 154.719 47.9825 181.19 81.8 181.208C115.62 181.19 143.037 154.742 143.073 122.1C143.073 89.4599 115.662 62.9981 81.8442 62.9922C48.0267 62.9864 20.6055 89.4385 20.5933 122.079ZM21.6996 122.136C21.6853 90.0836 48.5921 64.0881 81.8003 64.0704C115.005 64.088 141.925 90.0515 141.967 122.1C141.973 154.152 115.06 180.141 81.8519 180.151C48.6437 180.161 21.7138 154.188 21.6996 122.136Z" fill="#001550"/>
  <path d="M81.8 181.208L81.7998 181.708H81.8003L81.8 181.208ZM20.5933 122.079L20.0933 122.079L20.5933 122.079ZM143.073 122.1L143.573 122.101V122.1H143.073ZM81.8442 62.9922L81.8443 62.4922L81.8442 62.9922ZM81.8003 64.0704L81.8006 63.5704L81.8 63.5704L81.8003 64.0704ZM21.6996 122.136L21.1996 122.136L21.6996 122.136ZM141.967 122.1L142.467 122.1V122.099L141.967 122.1ZM81.8519 180.151L81.8517 179.651L81.8519 180.151ZM81.8003 180.708C48.242 180.69 21.0812 154.426 21.0933 122.079L20.0933 122.079C20.0809 155.011 47.7229 181.69 81.7998 181.708L81.8003 180.708ZM142.573 122.099C142.537 154.449 115.36 180.69 81.7998 180.708L81.8003 181.708C115.879 181.69 143.536 155.035 143.573 122.101L142.573 122.099ZM81.8442 63.4922C115.402 63.4981 142.573 89.7525 142.573 122.1H143.573C143.573 89.1672 115.921 62.4982 81.8443 62.4922L81.8442 63.4922ZM21.0933 122.079C21.1054 89.7314 48.2859 63.4864 81.8442 63.4922L81.8443 62.4922C47.7675 62.4863 20.1056 89.1457 20.0933 122.079L21.0933 122.079ZM81.8 63.5704C48.3326 63.5882 21.1852 89.7911 21.1996 122.136L22.1996 122.135C22.1854 90.376 48.8517 64.5879 81.8006 64.5704L81.8 63.5704ZM142.467 122.099C142.424 89.7586 115.264 63.5882 81.8006 63.5704L81.8 64.5704C114.746 64.5879 141.425 90.3445 141.467 122.101L142.467 122.099ZM81.852 180.651C115.319 180.641 142.474 154.445 142.467 122.1L141.467 122.1C141.473 153.859 114.801 179.641 81.8517 179.651L81.852 180.651ZM21.1996 122.136C21.2139 154.48 48.3846 180.661 81.852 180.651L81.8517 179.651C48.9029 179.661 22.2137 153.895 22.1996 122.135L21.1996 122.136Z" fill="#001550"/>
  <path d="M57.8326 99.6719L76.6791 150.933L114.726 110.262L57.8326 99.6719Z" fill="white"/>
  <path d="M126.272 200.957C126.272 200.957 114.604 224.346 105.822 226.897L92.6829 210.703L81.6227 197.06L78.8024 193.698L78.736 193.591L66.9128 172.999L65.5855 170.682L65.1874 168.996L64.2473 165.025L64.1809 164.736L64.3468 164.256L66.5588 158.31L70.5073 153.933V153.773L71.9341 146.749L72.0889 145.991L75.8493 143.749C75.8493 143.749 75.8493 143.749 75.8493 143.696C75.5839 143.013 72.8078 135.38 74.9756 130.939C75.4275 129.944 76.2044 129.119 77.1876 128.591C77.6228 128.351 78.0872 128.164 78.5701 128.036C78.6636 127.857 78.7828 127.691 78.9241 127.544C79.2669 127.171 79.8642 126.883 80.561 127.833C80.8849 128.305 81.1381 128.819 81.313 129.359C81.4347 129.647 81.5564 129.989 81.678 130.363C81.678 130.533 81.7776 130.704 81.8329 130.886C81.8882 131.067 81.9545 131.27 82.0209 131.473C82.1536 131.9 82.2974 132.327 82.4412 132.754C84.4762 138.86 88.2809 149.236 88.5685 149.983L97.7595 152.908L98.8655 153.25L99.4074 154.68L102.615 163.156L102.825 163.712L102.925 164.395L104.96 180.642L105.037 180.717L122.39 197.253L126.272 200.957Z" fill="white" stroke="#001550"/>
  <path d="M127.301 202.259C127.161 202.258 127.026 202.205 126.925 202.11C111.375 188.082 104.595 181.09 104.529 181.026C104.448 180.94 104.397 180.832 104.385 180.717L103.345 170.437C102.917 166.671 102.117 162.953 100.956 159.335C100.398 157.16 99.2531 155.168 97.6381 153.559C95.8353 151.926 93.5569 151.52 91.1347 151.083C90.2389 150.923 89.3098 150.762 88.4029 150.528C88.2609 150.493 88.1396 150.404 88.0666 150.281C87.9937 150.158 87.9754 150.012 88.0158 149.876C88.0522 149.739 88.1439 149.621 88.2705 149.549C88.397 149.477 88.5482 149.457 88.6904 149.492C89.5531 149.716 90.4601 149.876 91.3449 150.037C93.8113 150.474 96.3551 150.933 98.4012 152.791C100.147 154.527 101.387 156.678 101.996 159.025C103.181 162.717 104 166.509 104.44 170.351L105.469 180.45C106.464 181.464 113.321 188.392 127.677 201.352C127.847 201.5 127.904 201.735 127.821 201.941C127.737 202.147 127.531 202.282 127.301 202.28V202.259Z" fill="#001550" stroke="#001550"/>
  <path d="M92.1967 159.473C91.9744 159.469 91.7751 159.34 91.688 159.142C90.5156 156.378 89.3211 153.453 88.0492 150.197C87.5957 149.076 87.1644 147.934 86.722 146.802C84.9192 142.116 83.4039 137.387 81.9108 132.924C81.767 132.508 81.6232 132.07 81.4905 131.643L81.4352 131.494C81.4352 131.334 81.3357 131.184 81.3025 131.035L80.7274 129.327C80.7274 129.242 80.6721 129.167 80.65 129.081C80.5513 128.769 80.3896 128.479 80.1744 128.227L80.1191 128.163C79.8389 127.922 79.4327 127.876 79.1015 128.046C78.8753 128.119 78.6597 128.219 78.46 128.345C78.1411 128.531 77.8411 128.745 77.5642 128.985C76.8406 129.612 76.2637 130.379 75.872 131.238L75.7614 131.473C74.5558 134.312 75.2194 137.771 75.7614 140.301C75.9715 141.368 76.1927 142.436 76.436 143.589C76.4308 143.606 76.4308 143.625 76.436 143.642C77.5421 148.585 78.9467 153.367 80.1854 157.392C80.2357 157.658 80.0713 157.919 79.8028 157.998C79.5344 158.077 79.2472 157.949 79.1347 157.701C77.8849 153.655 76.4582 148.852 75.3521 143.824C75.0978 142.756 74.8655 141.614 74.6554 140.504C74.1466 137.846 73.4387 134.205 74.766 131.078L74.8876 130.811C75.3484 129.816 76.0189 128.926 76.8563 128.195C77.1985 127.909 77.569 127.655 77.9623 127.438C78.2404 127.273 78.5373 127.141 78.8472 127.043C79.0995 126.956 79.3646 126.909 79.6324 126.904C80.161 126.899 80.6685 127.104 81.0371 127.47L81.1034 127.555C81.4096 127.919 81.6422 128.336 81.7891 128.783L82.4417 130.747C82.4417 130.907 82.5302 131.046 82.5744 131.184V131.334C82.7071 131.761 82.8509 132.188 82.9947 132.604C84.4436 137.045 85.992 141.763 87.7948 146.418C88.2261 147.56 88.6686 148.692 89.111 149.812C90.3829 153.015 91.5663 155.972 92.7387 158.726C92.7931 158.858 92.791 159.005 92.7329 159.135C92.6748 159.265 92.5655 159.368 92.429 159.42C92.3579 159.457 92.2777 159.476 92.1967 159.473Z" fill="#001550" stroke="#001550"/>
  <path d="M71.846 161.416C71.6014 161.413 71.387 161.258 71.3151 161.032C70.5787 158.67 70.1259 156.234 69.9657 153.773C69.7404 151.297 70.2345 148.809 71.3925 146.589L71.481 146.428C72.3786 145.164 73.7371 144.272 75.2856 143.931C75.5911 143.851 75.9055 144.025 75.988 144.32C76.0704 144.615 75.8897 144.918 75.5843 144.998C74.3022 145.271 73.1731 145.998 72.4211 147.037L72.3437 147.176C71.2996 149.216 70.8594 151.496 71.0717 153.762C71.2278 156.141 71.6694 158.495 72.3879 160.776C72.4662 161.061 72.2944 161.355 72.0008 161.438L71.846 161.416Z" fill="#001550" stroke="#001550"/>
  <path d="M104.96 225.52C104.794 225.52 104.636 225.45 104.529 225.328L78.3715 194.029L78.3052 193.932C73.9259 187.25 69.9523 180.328 66.4045 173.202C65.6745 171.675 65.0994 170.351 64.657 169.156C64.2442 168.11 63.9006 167.041 63.6284 165.953C63.6229 165.903 63.6229 165.853 63.6284 165.804C63.6284 165.515 63.6284 165.227 63.6947 164.928C63.7611 164.629 63.6947 164.405 63.8053 164.138C64.1526 161.987 64.9021 159.914 66.0174 158.022C67.0155 156.216 68.4308 154.656 70.1539 153.463C70.4105 153.305 70.7518 153.376 70.917 153.623C70.999 153.742 71.0277 153.887 70.9964 154.026C70.9651 154.165 70.8765 154.285 70.7511 154.36C69.1852 155.469 67.8965 156.903 66.9796 158.555C65.9147 160.335 65.1986 162.289 64.8671 164.32C64.8191 164.563 64.7858 164.809 64.7676 165.056C64.73 165.297 64.7078 165.539 64.7012 165.782C64.9604 166.804 65.2855 167.81 65.6745 168.793C66.1169 169.956 66.6699 171.259 67.3888 172.753C70.9079 179.806 74.8406 186.66 79.1679 193.281C79.1982 193.318 79.2241 193.357 79.2453 193.399L105.369 224.655C105.56 224.883 105.526 225.216 105.292 225.403C105.198 225.476 105.081 225.517 104.96 225.52Z" fill="#001550" stroke="#001550"/>
  <path d="M131.57 198.629C130.145 202.482 128.251 206.159 125.93 209.582C117.568 222.317 105.17 235.843 105.17 235.843C97.2617 228.872 86.3011 212.721 86.3011 212.721C91.7317 209.518 100.425 200.199 105.314 194.231C110.003 188.499 113.398 183.62 113.398 183.62L131.57 198.629Z" fill="white" stroke="#001550" stroke-width="2"/>
  <path fill-rule="evenodd" clip-rule="evenodd" d="M104.772 236.238C104.875 236.327 105.009 236.377 105.148 236.377L105.17 236.355C105.319 236.347 105.458 236.281 105.557 236.174C105.679 236.046 118.088 222.478 126.372 209.849C128.714 206.397 130.629 202.693 132.079 198.811C132.15 198.601 132.085 198.37 131.914 198.224L113.731 183.215C113.611 183.119 113.454 183.076 113.299 183.098C113.142 183.12 113.001 183.205 112.912 183.332C112.91 183.335 112.894 183.358 112.864 183.401C112.432 184.017 109.145 188.707 104.86 193.901C100.282 199.452 91.5109 208.995 85.9808 212.262C85.857 212.341 85.7699 212.463 85.7375 212.603C85.7019 212.743 85.7301 212.891 85.8149 213.009C85.8301 213.026 85.9485 213.195 86.1572 213.494C88.0813 216.247 97.6778 229.978 104.772 236.238ZM105.104 235.085C98.1033 228.734 88.846 215.496 87.0432 212.892V212.881C92.6838 209.294 101.233 200.05 105.746 194.573C109.528 189.94 112.493 185.82 113.488 184.432L130.908 198.811C129.504 202.498 127.671 206.018 125.444 209.305C118.012 220.631 107.239 232.726 105.104 235.085Z" fill="#001550"/>
  <path d="M3.88151 129.21C3.75985 127.609 3.72667 125.708 4.27967 125.057C4.8747 124.44 5.5934 123.946 6.39216 123.605C13.9683 119.794 21.5556 115.983 29.3862 112.653C30.0719 112.365 30.9346 112.087 31.5429 112.525C32.0054 112.976 32.1899 113.628 32.0295 114.243C31.6502 116.179 30.684 117.962 29.2534 119.367C27.3163 121.484 25.0106 123.258 22.4404 124.609C21.5613 125.024 20.7115 125.495 19.8966 126.018C18.8614 126.82 17.8994 127.705 17.0209 128.665C16.3237 129.344 15.585 129.982 14.8089 130.576" fill="white"/>
  <path d="M3.88151 129.21C3.75985 127.609 3.72667 125.708 4.27967 125.057C4.8747 124.44 5.5934 123.946 6.39216 123.605C13.9683 119.794 21.5556 115.983 29.3862 112.653C30.0719 112.365 30.9346 112.087 31.5429 112.525C32.0054 112.976 32.1899 113.628 32.0295 114.243C31.6502 116.179 30.684 117.962 29.2534 119.367C27.3163 121.484 25.0106 123.258 22.4404 124.609C21.5613 125.024 20.7115 125.495 19.8966 126.018C18.8614 126.82 17.8994 127.705 17.0209 128.665C16.3237 129.344 15.585 129.982 14.8089 130.576" stroke="#001550" stroke-width="1.5"/>
  <path d="M14.8196 131.11C14.6502 131.114 14.4892 131.038 14.3883 130.907C14.2949 130.797 14.2517 130.656 14.2683 130.515C14.285 130.374 14.3602 130.246 14.4768 130.16C15.2307 129.58 15.9472 128.956 16.6224 128.292C16.8584 128.064 17.0796 127.84 17.286 127.619C17.9845 126.875 18.7507 126.192 19.5755 125.58C20.2061 125.16 20.8678 124.786 21.5552 124.459L22.1746 124.139C24.683 122.818 26.9296 121.08 28.8107 119.004C30.1795 117.691 31.1048 116.009 31.4651 114.179C31.4651 113.902 31.5425 113.218 31.1776 112.951C30.8126 112.685 30.0715 112.951 29.5849 113.144C21.7765 116.464 14.1007 120.339 6.62407 124.086C5.89164 124.384 5.23226 124.828 4.68855 125.388C4.50053 125.612 4.21297 126.455 4.41205 129.178C4.43343 129.472 4.20317 129.728 3.89775 129.749C3.59234 129.769 3.32742 129.547 3.30604 129.252C3.12907 126.765 3.30604 125.367 3.82586 124.715C4.47034 124.045 5.24923 123.507 6.11531 123.135C13.5809 119.378 21.2898 115.503 29.1314 112.172C29.9558 111.669 30.9995 111.64 31.8522 112.097C32.4836 112.657 32.754 113.501 32.5601 114.307C32.1794 116.356 31.1609 118.244 29.6402 119.719C27.6609 121.876 25.3066 123.682 22.6834 125.057L22.053 125.377C20.5207 126.075 19.1625 127.083 18.0713 128.334C17.8501 128.569 17.6178 128.793 17.3966 129.017C16.6987 129.709 15.9602 130.361 15.1846 130.971C15.0841 131.058 14.9546 131.107 14.8196 131.11Z" fill="#001550"/>
  <path d="M10.4622 129.284C11.0031 129.023 11.5654 128.806 12.1433 128.633C17.6734 127.021 23.7011 127.406 29.2865 125.89C32.1068 125.121 34.8166 123.861 37.8028 123.883C38.6876 123.883 39.8932 124.235 39.7936 125.303C39.6941 126.37 38.9309 126.797 38.3447 127.438C37.7001 128.192 37.0056 128.905 36.2654 129.573C34.7225 130.881 32.9611 131.928 31.0561 132.668C28.2558 133.602 25.3658 134.264 22.4292 134.643C19.5978 135.166 16.8992 136.01 14.1231 136.778C13.4373 136.97 12.7405 137.141 12.0327 137.28" fill="white"/>
  <path d="M12.0325 137.835C11.7712 137.831 11.5469 137.655 11.4906 137.408C11.4612 137.269 11.4902 137.125 11.5711 137.007C11.6519 136.889 11.7782 136.807 11.9219 136.778C12.5413 136.661 13.1938 136.501 13.968 136.287L15.6492 135.818C17.8304 135.151 20.0453 134.592 22.2853 134.142L24.1765 133.811C26.4428 133.509 28.6681 132.968 30.8126 132.199C32.6594 131.479 34.3679 130.465 35.8671 129.199C36.3972 128.728 36.8924 128.221 37.3491 127.683L37.9022 127.075C38.0128 126.947 38.1455 126.819 38.2671 126.701C38.7404 126.333 39.0715 125.821 39.2072 125.249C39.2247 125.092 39.177 124.935 39.0745 124.812C38.7014 124.528 38.2326 124.387 37.7584 124.417C35.7056 124.516 33.6839 124.941 31.7748 125.676C30.9896 125.933 30.1932 126.189 29.3969 126.402C26.6246 127.077 23.7977 127.524 20.947 127.737C18.0172 127.943 15.1141 128.415 12.2758 129.146C11.7232 129.306 11.1865 129.513 10.6721 129.765C10.4945 129.868 10.272 129.867 10.0958 129.761C9.91958 129.656 9.8192 129.464 9.83576 129.265C9.85232 129.065 9.98305 128.892 10.1744 128.815C10.7465 128.535 11.3422 128.303 11.9551 128.121C14.8512 127.372 17.8134 126.886 20.8032 126.669C23.5936 126.464 26.361 126.032 29.0762 125.377C29.8614 125.164 30.6246 124.918 31.3988 124.662C33.4263 123.892 35.571 123.449 37.7473 123.349C38.5296 123.318 39.2931 123.586 39.8709 124.096C40.1881 124.436 40.3373 124.892 40.2801 125.345C40.1505 126.179 39.71 126.938 39.0413 127.48L38.6985 127.822L38.1676 128.42C37.6747 128.994 37.1427 129.536 36.5749 130.042C34.9865 131.394 33.1729 132.477 31.2108 133.245C28.9893 134.034 26.6868 134.593 24.3424 134.91L22.4733 135.241C20.2612 135.658 18.0492 136.309 15.9036 136.896L14.2224 137.366C13.4261 137.59 12.7293 137.75 12.0878 137.878L12.0325 137.835Z" fill="#001550" stroke="#001550"/>
  <path d="M9.40039 136.789C10.5266 135.912 11.8416 135.288 13.2493 134.964C15.9163 134.6 18.623 134.6 21.29 134.964C25.9739 135.325 30.6818 135.286 35.3585 134.846C36.1111 134.707 36.8843 134.707 37.6369 134.846C41.9835 136.031 36.1217 140.109 34.4848 140.792C28.0367 143.493 20.4052 143.621 13.4705 143.461" fill="white"/>
  <path d="M16.9322 144.123C15.8262 144.123 14.6206 144.123 13.4814 144.123C13.3347 144.12 13.1952 144.061 13.0936 143.959C12.992 143.857 12.9365 143.72 12.9395 143.578C12.9514 143.286 13.2005 143.055 13.5035 143.055C20.6152 143.226 28.0587 143.055 34.2634 140.429C35.5796 139.885 38.6875 137.579 38.6875 136.341C38.6875 135.978 38.2782 135.69 37.5261 135.487C36.8534 135.368 36.1639 135.368 35.4911 135.487C30.7669 135.935 26.0108 135.978 21.2788 135.615L20.1728 135.529C17.9058 135.219 15.6047 135.219 13.3376 135.529C12.0168 135.841 10.7824 136.428 9.72098 137.248C9.47953 137.427 9.13338 137.384 8.94677 137.152C8.75855 136.922 8.79806 136.588 9.03525 136.405C10.2301 135.478 11.6246 134.822 13.1164 134.483C15.4867 134.137 17.8958 134.115 20.2723 134.419L21.312 134.505C25.9629 134.86 30.6372 134.821 35.2809 134.387C36.1077 134.257 36.9527 134.282 37.7695 134.462C39.3289 134.889 39.705 135.679 39.7382 136.266C39.893 138.401 35.6017 141.027 34.6726 141.411C29.3085 143.664 23.0816 144.123 16.9322 144.123Z" fill="#001550" stroke="#001550"/>
  <path d="M17.4856 143.888C17.4856 143.888 26.6876 155.63 19.9852 166.829L17.4856 143.888Z" fill="white"/>
  <path d="M19.9851 167.362C19.889 167.363 19.7941 167.341 19.7086 167.298C19.4468 167.146 19.3545 166.822 19.4985 166.562C25.9465 155.769 17.1316 144.326 17.0431 144.219C16.9226 144.066 16.8956 143.863 16.9722 143.686C17.0488 143.509 17.2175 143.385 17.4146 143.361C17.6117 143.336 17.8074 143.415 17.928 143.568C18.0164 143.685 27.2738 155.673 20.4607 167.053C20.3744 167.233 20.1911 167.353 19.9851 167.362Z" fill="#001550" stroke="#001550"/>
  <path d="M52.1808 193.676C52.1808 193.676 48.542 199.387 37.0063 203.828C29.89 206.437 22.4142 208.02 14.8197 208.525L11.4353 185.574C11.4353 185.574 18.8456 186.866 29.6292 182.446C33.6736 180.767 37.5037 178.643 41.0433 176.116L52.1808 193.676Z" fill="white" stroke="#001550" stroke-width="2"/>
  <path fill-rule="evenodd" clip-rule="evenodd" d="M14.278 208.6C14.3117 208.864 14.5447 209.061 14.8199 209.059H14.8642C22.5145 208.539 30.045 206.942 37.2167 204.319C48.7459 199.883 52.4652 194.238 52.6439 193.967L52.6456 193.964C52.7551 193.791 52.7551 193.572 52.6456 193.399L41.5191 175.838C41.4339 175.715 41.3035 175.627 41.1541 175.593C40.9992 175.565 40.8393 175.6 40.7117 175.689C37.2095 178.189 33.4204 180.292 29.4193 181.955C19.3208 186.084 12.1606 185.133 11.5736 185.056C11.5505 185.052 11.5376 185.051 11.5351 185.051C11.3596 185.025 11.1812 185.076 11.0484 185.19C10.9224 185.309 10.8646 185.48 10.8936 185.649L14.278 208.6ZM15.3284 207.949L12.1209 186.193C14.2445 186.364 20.8584 186.62 29.8171 182.937C33.724 181.324 37.4334 179.298 40.8773 176.895L51.5503 193.666C50.6765 194.797 46.6396 199.558 36.8403 203.337C29.9349 205.859 22.6906 207.412 15.3284 207.949Z" fill="#001550"/>
  <path d="M14.8199 209.059V208.809L14.8181 208.809L14.8199 209.059ZM14.278 208.6L14.526 208.568L14.5253 208.563L14.278 208.6ZM14.8642 209.059V209.309H14.8727L14.8811 209.308L14.8642 209.059ZM37.2167 204.319L37.3026 204.554L37.3065 204.553L37.2167 204.319ZM52.6439 193.967L52.8526 194.105L52.8527 194.105L52.6439 193.967ZM52.6456 193.964L52.8544 194.102L52.8571 194.098L52.6456 193.964ZM52.6456 193.399L52.8571 193.265L52.8568 193.265L52.6456 193.399ZM41.5191 175.838L41.7304 175.704L41.7248 175.696L41.5191 175.838ZM41.1541 175.593L41.2103 175.349L41.1983 175.347L41.1541 175.593ZM40.7117 175.689L40.5685 175.484L40.5664 175.485L40.7117 175.689ZM29.4193 181.955L29.5139 182.186L29.5153 182.186L29.4193 181.955ZM11.5736 185.056L11.5407 185.303H11.5407L11.5736 185.056ZM11.5351 185.051L11.4986 185.298L11.5168 185.301H11.5351V185.051ZM11.0484 185.19L10.8856 184.999L10.8764 185.008L11.0484 185.19ZM10.8936 185.649L11.141 185.612L11.14 185.606L10.8936 185.649ZM12.1209 186.193L12.141 185.944L11.8278 185.919L11.8736 186.229L12.1209 186.193ZM15.3284 207.949L15.081 207.985L15.1149 208.215L15.3465 208.198L15.3284 207.949ZM29.8171 182.937L29.9122 183.168L29.9125 183.168L29.8171 182.937ZM40.8773 176.895L41.0882 176.761L40.9481 176.541L40.7342 176.69L40.8773 176.895ZM51.5503 193.666L51.7482 193.818L51.8554 193.679L51.7612 193.531L51.5503 193.666ZM36.8403 203.337L36.9261 203.572L36.9303 203.57L36.8403 203.337ZM14.8181 208.809C14.6625 208.81 14.5428 208.7 14.526 208.568L14.03 208.632C14.0806 209.028 14.427 209.312 14.8217 209.309L14.8181 208.809ZM14.8642 208.809H14.8199V209.309H14.8642V208.809ZM37.1308 204.084C29.9814 206.699 22.4741 208.291 14.8472 208.81L14.8811 209.308C22.5549 208.787 30.1086 207.185 37.3026 204.554L37.1308 204.084ZM52.4351 193.83C52.2816 194.063 48.6017 199.671 37.1269 204.086L37.3065 204.553C48.8902 200.095 52.6489 194.414 52.8526 194.105L52.4351 193.83ZM52.4368 193.827L52.4351 193.83L52.8527 194.105L52.8544 194.102L52.4368 193.827ZM52.4341 193.532C52.4922 193.624 52.4922 193.739 52.4341 193.831L52.8571 194.098C53.0179 193.843 53.0179 193.521 52.8571 193.265L52.4341 193.532ZM41.3079 175.972L52.4344 193.532L52.8568 193.265L41.7303 175.704L41.3079 175.972ZM41.098 175.836C41.1881 175.857 41.2645 175.909 41.3133 175.98L41.7248 175.696C41.6033 175.52 41.4189 175.397 41.2102 175.349L41.098 175.836ZM40.8549 175.894C40.9273 175.843 41.0197 175.823 41.1099 175.839L41.1983 175.347C40.9788 175.307 40.7513 175.356 40.5685 175.484L40.8549 175.894ZM29.5153 182.186C33.5336 180.516 37.3393 178.404 40.857 175.892L40.5664 175.485C37.0797 177.975 33.3071 180.068 29.3233 181.724L29.5153 182.186ZM11.5407 185.303C12.1553 185.385 19.3626 186.337 29.5139 182.186L29.3247 181.724C19.2789 185.831 12.1659 184.882 11.6065 184.808L11.5407 185.303ZM11.5351 185.301C11.5288 185.301 11.524 185.301 11.5217 185.3C11.5191 185.3 11.5171 185.3 11.5159 185.3C11.5136 185.3 11.5121 185.3 11.512 185.3C11.5117 185.3 11.5125 185.3 11.5153 185.3C11.5208 185.301 11.5288 185.302 11.5407 185.303L11.6065 184.808C11.5953 184.806 11.5854 184.805 11.5779 184.804C11.5743 184.804 11.57 184.803 11.5658 184.803C11.5638 184.802 11.5607 184.802 11.5571 184.802C11.5553 184.802 11.5463 184.801 11.5351 184.801V185.301ZM11.2111 185.379C11.288 185.313 11.3935 185.283 11.4986 185.298L11.5715 184.803C11.3256 184.767 11.0744 184.838 10.8858 185L11.2111 185.379ZM11.14 185.606C11.1255 185.522 11.1538 185.434 11.2204 185.371L10.8764 185.008C10.691 185.184 10.6037 185.439 10.6472 185.691L11.14 185.606ZM14.5253 208.563L11.1409 185.612L10.6463 185.685L14.0307 208.636L14.5253 208.563ZM11.8736 186.229L15.081 207.985L15.5757 207.912L12.3683 186.157L11.8736 186.229ZM29.7221 182.706C20.8093 186.37 14.237 186.112 12.141 185.944L12.1009 186.442C14.252 186.615 20.9076 186.87 29.9122 183.168L29.7221 182.706ZM40.7342 176.69C37.3054 179.082 33.6119 181.1 29.7217 182.706L29.9125 183.168C33.8361 181.548 37.5615 179.513 41.0203 177.1L40.7342 176.69ZM51.7612 193.531L41.0882 176.761L40.6663 177.029L51.3394 193.8L51.7612 193.531ZM36.9303 203.57C46.777 199.773 50.8498 194.982 51.7482 193.818L51.3524 193.513C50.5032 194.612 46.5021 199.343 36.7504 203.104L36.9303 203.57ZM15.3465 208.198C22.7317 207.66 29.9989 206.102 36.9261 203.572L36.7546 203.102C29.871 205.616 22.6494 207.164 15.3102 207.699L15.3465 208.198Z" fill="#001550"/>
  <path d="M221.799 74.1049C221.799 74.1049 224.498 75.4073 227.185 70.9878C229.873 66.5683 232.218 54.4628 226.301 53.4273C218.304 49.6697 215.606 55.1246 215.606 55.1246L210.75 38.226C210.75 38.226 209.412 22.6191 199.17 23.9214C188.928 25.2238 183 36.1444 183 36.1444L155.25 37.2119L154.443 52.2957C154.443 52.2957 149.864 49.1786 148.515 53.075C147.165 56.9714 147.165 69.9843 158.469 74.1369C158.469 74.1369 162.893 93.5121 176.453 104.112L183.089 104.486L181.618 119.655C184.741 125.943 190.384 130.731 197.246 132.914C208.571 136.298 219.034 115.022 219.034 115.022C219.034 115.022 219.3 88.655 221.799 74.1049Z" fill="white" stroke="#001550"/>
  <path d="M157.606 73.5178H157.474C152.308 72.3542 148.747 68.5966 147.519 62.9175C146.347 57.7187 147.398 52.0503 149.035 50.8226C149.598 50.389 150.33 50.2172 151.037 50.3529C153.503 50.7586 155.925 54.3347 156.025 54.4842C156.193 54.7318 156.121 55.064 155.864 55.2261C155.608 55.3882 155.264 55.3189 155.096 55.0713C154.476 54.1426 152.497 51.6766 150.849 51.3991C150.457 51.3332 150.056 51.4301 149.743 51.666C148.637 52.4773 147.464 57.5693 148.637 62.6933C149.477 66.4082 151.744 71.1159 157.816 72.4823C158.112 72.5509 158.295 72.8371 158.226 73.1228C158.16 73.3917 157.888 73.5647 157.606 73.5178Z" fill="#001550" stroke="#001550"/>
  <path d="M232.461 135.753C232.464 135.785 232.464 135.818 232.461 135.85C230.038 138.949 227.356 141.851 224.443 144.528C224 144.945 223.536 145.35 223.082 145.745C216.983 151.169 210.175 155.798 202.831 159.516L202.665 159.612L197.766 131.174C204.785 127.265 211.028 122.183 216.203 116.165L216.557 115.802C217.32 114.99 218.625 113.838 219.023 113.24C220.373 111.222 220.129 112.087 220.129 112.087L219.244 108.041L218.78 105.981L219.278 106.205C232.494 115.46 232.76 134.11 232.461 135.753Z" fill="white" stroke="#001550" stroke-width="2"/>
  <path d="M202.643 160.168C202.557 160.166 202.474 160.144 202.399 160.103C202.24 160.031 202.128 159.887 202.101 159.719L197.19 131.281C197.17 131.113 197.226 130.946 197.345 130.822C197.424 130.75 197.519 130.696 197.621 130.662C203.941 126.526 209.811 121.783 215.141 116.507L216.379 115.226C218.02 113.618 219.557 111.913 220.98 110.123C221.158 109.881 221.504 109.824 221.755 109.995C222.005 110.166 222.065 110.5 221.887 110.742C220.432 112.569 218.862 114.309 217.187 115.951L215.948 117.232C210.589 122.534 204.694 127.305 198.351 131.473L203.052 158.769C209.912 154.737 216.478 150.257 222.706 145.361C223.17 144.998 223.624 144.614 224.066 144.24C228.037 140.888 230.702 137.995 231.941 135.615C232.395 133.864 230.636 116.112 219.399 106.792C219.249 106.668 219.178 106.476 219.215 106.289C219.251 106.101 219.388 105.947 219.574 105.883C219.76 105.82 219.968 105.857 220.118 105.981C231.93 115.738 233.501 133.939 233.003 135.871C233.003 135.871 233.003 135.999 233.003 136.01C231.642 138.583 228.911 141.593 224.84 145.03C224.398 145.415 223.922 145.799 223.458 146.173C217.024 151.225 210.236 155.84 203.14 159.986C203.079 160.029 203.012 160.065 202.941 160.093C202.852 160.147 202.748 160.173 202.643 160.168Z" fill="#001550" stroke="#001550" stroke-width="0.5"/>
  <path d="M197.743 131.195L184.725 159.676C184.725 159.676 171.011 141.956 170.613 127.213C172.603 119.261 174.749 114.83 183.254 110.016L182.292 115.748C182.292 115.748 183.863 129.295 197.743 131.195Z" fill="white" stroke="#001550" stroke-width="2"/>
  <path d="M197.058 131.387L184.637 158.523C182.237 154.947 172.515 139.831 171.177 127.192C173.865 113.336 182.89 110.945 182.989 110.945C183.131 110.912 183.253 110.825 183.328 110.705C183.403 110.585 183.424 110.44 183.387 110.304C183.311 110.017 183.012 109.842 182.713 109.909C182.315 109.994 172.88 112.428 170.071 127.075C170.06 127.124 170.06 127.175 170.071 127.224C171.586 141.902 184.151 159.762 184.272 159.932C184.373 160.079 184.543 160.168 184.726 160.167L184.781 160.157C184.981 160.137 185.155 160.015 185.234 159.836" stroke="#001550" stroke-width="0.5"/>
  <path d="M182.447 115.994H182.292C182 115.916 181.828 115.626 181.905 115.343C182.793 111.809 183.021 108.151 182.58 104.54C182.541 104.248 182.753 103.981 183.056 103.942C183.358 103.904 183.635 104.109 183.675 104.401C184.147 108.151 183.911 111.952 182.978 115.62C182.905 115.844 182.69 115.995 182.447 115.994Z" fill="#001550" stroke="#001550"/>
  <path d="M219.543 113.229C219.25 113.23 219.008 113.01 218.99 112.727C217.762 88.1001 221.755 73.9023 221.799 73.7635C221.89 73.4838 222.19 73.3202 222.485 73.3899C222.778 73.4724 222.947 73.7687 222.861 74.0517C222.861 74.1905 218.879 88.2389 220.085 112.674C220.094 112.815 220.044 112.953 219.946 113.057C219.848 113.162 219.711 113.224 219.565 113.229H219.543Z" fill="#001550" stroke="#001550"/>
  <path d="M177.835 77.0728C177.167 77.0574 176.502 76.9679 175.855 76.8059C174.03 76.3896 171.84 75.6744 171.088 73.7742C170.625 72.218 170.994 70.5415 172.073 69.3014C172.46 68.7783 172.891 68.2979 173.311 67.8282C173.856 67.2699 174.348 66.6662 174.782 66.0241C176.541 63.27 176.043 59.7685 175.324 56.1283C175.27 55.8373 175.467 55.5576 175.767 55.4985C176.066 55.4466 176.352 55.6373 176.408 55.9255C177.138 59.6298 177.691 63.5048 175.722 66.6006C175.257 67.2934 174.732 67.9469 174.152 68.5541C173.732 68.9959 173.337 69.4591 172.969 69.9419C172.146 70.9099 171.835 72.1916 172.128 73.4113C172.692 74.8417 174.55 75.4289 176.11 75.7811C177.092 76.1306 178.175 76.1078 179.14 75.7171C179.308 75.616 179.519 75.6091 179.694 75.6989C179.868 75.7888 179.98 75.9617 179.987 76.1526C179.994 76.3435 179.894 76.5234 179.726 76.6245C179.151 76.9396 178.496 77.0947 177.835 77.0728Z" fill="#001550" stroke="#001550"/>
  <path d="M170.668 57.9964C170.768 59.9926 169.938 61.6472 168.821 61.6899C167.704 61.7326 166.731 60.1634 166.609 58.1672C166.487 56.1709 167.339 54.5163 168.456 54.4629C169.573 54.4095 170.58 56.0001 170.668 57.9964Z" fill="#001550"/>
  <path d="M193.408 57.4732C193.507 59.4695 192.678 61.1241 191.561 61.1668C190.444 61.2095 189.47 59.6403 189.349 57.644C189.227 55.6478 190.079 53.9932 191.196 53.9398C192.313 53.8864 193.319 55.477 193.408 57.4732Z" fill="#001550"/>
  <path d="M183.033 84.9508C180.991 84.9939 178.965 84.5926 177.105 83.7765C176.983 83.6965 176.898 83.5723 176.871 83.4319C176.844 83.2915 176.877 83.1464 176.961 83.0293C177.042 82.9116 177.169 82.8306 177.313 82.8044C177.456 82.7783 177.605 82.8093 177.725 82.8905C180.266 83.8845 183.053 84.1405 185.743 83.6271C188.88 82.9983 191.607 81.1432 193.275 78.503C193.448 78.2594 193.788 78.189 194.049 78.3429C194.303 78.5098 194.372 78.8419 194.204 79.0902C192.373 81.9829 189.375 84.0066 185.931 84.6732C184.978 84.8623 184.007 84.9553 183.033 84.9508Z" fill="#001550" stroke="#001550"/>
  <path d="M183.432 46.7983C183.258 46.7967 183.095 46.7179 182.989 46.5848C182.806 46.349 182.856 46.0144 183.1 45.8375C187.933 42.4109 191.24 42.2828 196.217 45.3145C196.472 45.474 196.55 45.7996 196.394 46.0511C196.229 46.2983 195.888 46.3699 195.631 46.2112C191.019 43.4036 188.243 43.5211 183.764 46.6916C183.668 46.7616 183.552 46.7991 183.432 46.7983Z" fill="#001550" stroke="#001550"/>
  <path d="M163.081 48.709C162.948 48.7084 162.819 48.6631 162.716 48.5809C162.603 48.4914 162.532 48.3615 162.519 48.2208C162.507 48.08 162.554 47.9404 162.65 47.8336C165.247 45.025 169.582 44.4714 172.847 46.5313C173.093 46.7048 173.152 47.0358 172.98 47.2785C172.804 47.5148 172.465 47.5717 172.217 47.4066C169.437 45.638 165.735 46.0913 163.501 48.4741C163.407 48.612 163.252 48.6991 163.081 48.709Z" fill="#001550" stroke="#001550"/>
  <path d="M179.771 104.796C178.639 104.811 177.508 104.746 176.386 104.604C176.295 104.593 176.207 104.56 176.132 104.508C175.833 104.273 168.666 98.8711 162.937 87.6516C153.182 68.5753 155.051 41.0016 155.073 40.6814C155.095 40.3866 155.36 40.1643 155.665 40.185C155.971 40.2056 156.201 40.4613 156.179 40.7561C156.179 41.0337 154.31 68.3191 163.922 87.1392C166.989 93.378 171.335 98.9522 176.696 103.525C180.562 103.883 184.463 103.601 188.232 102.693C195.388 101.017 202.167 95.6045 206.614 91.3666C206.716 91.2661 206.855 91.2095 207.001 91.2095C207.146 91.2095 207.286 91.2661 207.388 91.3666C207.495 91.4634 207.555 91.5986 207.555 91.7402C207.555 91.8817 207.495 92.0169 207.388 92.1138C202.853 96.4479 195.896 101.978 188.497 103.728C185.642 104.413 182.713 104.772 179.771 104.796Z" fill="#001550" stroke="#001550"/>
  <path d="M207.001 92.3272C206.905 92.3277 206.81 92.3057 206.724 92.2632C206.458 92.1143 206.364 91.7863 206.514 91.5266C211.989 82.0685 213.15 76.0158 213.205 75.9624C213.241 75.7717 213.379 75.6138 213.568 75.5482C213.757 75.4826 213.968 75.5192 214.121 75.6442C214.274 75.7693 214.347 75.9638 214.311 76.1545C214.256 76.4001 213.062 82.4208 207.487 92.0497C207.392 92.223 207.204 92.3302 207.001 92.3272Z" fill="#001550" stroke="#001550"/>
  <path d="M221.711 74.4679C218.57 74.4679 217.497 72.6425 217.441 72.5464C217.295 72.287 217.394 71.962 217.663 71.8205C217.931 71.679 218.268 71.7746 218.415 72.034C218.415 72.1194 219.709 74.1156 223.845 73.1015C226.411 72.4823 229.431 65.7037 229.519 60.3662C229.519 58.3165 229.154 54.7404 226.201 53.9611C219.344 52.093 215.738 61.8286 215.705 61.9247C215.601 62.2018 215.287 62.3485 214.997 62.2556C214.71 62.1553 214.562 61.8495 214.665 61.5724C214.665 61.4657 218.647 50.8013 226.5 52.9256C229.243 53.6729 230.725 56.331 230.669 60.3982C230.581 65.8958 227.561 73.3257 224.155 74.1477C223.358 74.3543 222.536 74.4619 221.711 74.4679Z" fill="#001550" stroke="#001550"/>
  <path d="M216.733 59.5761C215.893 61.2948 212.619 59.779 211.414 58.2738C210.186 56.6919 210.186 54.5181 211.414 52.9362C208.859 52.221 205.983 51.1108 204.877 48.773C204.409 47.5864 204.246 46.3081 204.401 45.0474C204.634 41.6207 205.507 38.2047 205.142 34.7886C204.777 31.3726 202.588 27.7965 199.081 27.1667C199.081 27.1667 186.915 48.1858 163.966 39.6992C163.966 39.6992 153.735 44.4175 149.079 36.3365C144.422 28.2555 150.704 19.7155 163.733 14.3246C163.733 14.3246 155.593 14.1004 155.825 10.0545C156.058 6.00869 175.811 4.88781 189.78 7.8448C189.78 7.8448 188.132 0.767236 205.353 2.78482C222.573 4.80241 228.148 9.48876 230.26 21.0925C242.88 27.7324 228.701 55.1033 228.701 55.1033C228.701 55.1033 222.031 48.6555 216.733 59.5761Z" fill="#001550"/>
  <path d="M153.879 36.7211C151.264 41.1359 150.791 46.4364 152.585 51.2178L156.135 56.5553L155.582 38.4077L153.879 36.7211Z" fill="#001550"/>
  <path d="M229.165 23.249C229.11 23.2591 229.054 23.2591 228.999 23.249C228.709 23.1575 228.551 22.8565 228.645 22.5765C233.335 8.69893 223.325 2.2939 222.894 1.98432C222.64 1.81743 222.572 1.48531 222.739 1.23706C222.908 0.993526 223.249 0.926822 223.502 1.08761C223.613 1.15166 234.651 8.2826 229.696 22.9074C229.612 23.1183 229.399 23.2551 229.165 23.249Z" fill="#001550" stroke="#001550"/>
  <line x1="23.839" y1="332.953" x2="341.568" y2="332.953" stroke="#001550" stroke-width="2"/>
  <path d="M348.052 332.772L372 332.772" stroke="#001550" stroke-width="2"/>
</svg>
