<?xml version="1.0" encoding="UTF-8"?>
<svg width="14px" height="14px" viewBox="0 0 14 14" version="1.1" xmlns="http://www.w3.org/2000/svg" xmlns:xlink="http://www.w3.org/1999/xlink">
    <title>905C3ADE-ADC6-4DC4-A391-B5960976EBC0</title>
    <g id="Phase-1-design" stroke="none" stroke-width="1" fill="none" fill-rule="evenodd">
        <g id="Search-&amp;-embed-with-filters" transform="translate(-357.000000, -57.000000)" fill="#356FB6" fill-rule="nonzero">
            <g id="How-does-it-work?" transform="translate(347.000000, 48.000000)">
                <g id="Group-2" transform="translate(10.000000, 5.000000)">
                    <g id="np_info_223370_356FB6" transform="translate(0.000000, 4.000000)">
                        <path d="M2.05013193,2.05013193 C-0.683377309,4.78364116 -0.683377309,9.21635884 2.05013193,11.9498681 C4.78364116,14.6833773 9.21635884,14.6833773 11.9498681,11.9498681 C14.6833773,9.21635884 14.6833773,4.78364116 11.9498681,2.05013193 C9.21635884,-0.683377309 4.78364116,-0.683377309 2.05013193,2.05013193 Z M7.28044327,2.93667546 C7.8714723,2.93667546 8.34417731,3.42439261 8.34417731,4.01542164 C8.34417731,4.60645066 7.85646016,5.09416781 7.28044327,5.09416781 C6.68941425,5.09416781 6.2016971,4.60645066 6.2016971,4.00100053 C6.20227424,3.40939525 6.68941425,2.93667546 7.28044327,2.93667546 L7.28044327,2.93667546 Z M8.80249077,10.1617098 C8.77305456,10.2505946 8.71360591,10.3539124 8.65473351,10.4127789 C8.27032823,10.8116053 7.79762322,11.0482533 7.23602744,11.0482533 C6.96994617,11.0482533 6.71887704,11.0482533 6.45279578,11.0038109 C6.02453615,10.9449385 5.47736148,10.4127818 5.55124011,9.85118607 C5.61011251,9.46678079 5.66956116,9.08296654 5.72843061,8.69856127 C5.84675166,8.03365361 5.96507863,7.35373383 6.08281161,6.68876707 C6.08281161,6.64432464 6.09781784,6.59988222 6.09781784,6.55601604 C6.09781784,6.27551367 6.00893298,6.17161077 5.7284247,6.14217752 C5.61010364,6.12717129 5.49177668,6.11274132 5.37404369,6.08330512 C5.24129266,6.03886269 5.16741995,5.92053573 5.18184106,5.81722385 C5.19684728,5.6989028 5.27072591,5.62502121 5.41848908,5.59558797 C5.4923677,5.58058174 5.58125847,5.58058174 5.66955821,5.58058174 L6.65941361,5.58058174 L7.70872654,5.58058174 C7.95979567,5.58058174 8.10755293,5.6989028 8.10755293,5.94997488 C8.10755293,6.15659863 8.07811673,6.3638134 8.0336743,6.57043715 C7.90092327,7.33865668 7.75317193,8.09248464 7.61983578,8.86067462 C7.57539335,9.11174375 7.51652095,9.36281288 7.48708475,9.61447303 C7.47207852,9.73279409 7.48708475,9.86554216 7.51652095,9.98386617 C7.56096338,10.1466356 7.67929034,10.2349353 7.84146871,10.2205142 C7.97421974,10.205508 8.10754997,10.1616418 8.24029509,10.1021931 C8.34360992,10.0577507 8.43249773,9.98387208 8.5358096,9.95443588 C8.71415261,9.89614121 8.84691251,9.99945604 8.80246712,10.1616359 L8.80249077,10.1617098 Z" id="Shape"></path>
                    </g>
                </g>
            </g>
        </g>
    </g>
</svg>