<?xml version="1.0" encoding="UTF-8"?>
<svg width="26px" height="26px" viewBox="0 0 26 26" version="1.1" xmlns="http://www.w3.org/2000/svg" xmlns:xlink="http://www.w3.org/1999/xlink">
    <title>B76B7545-8F66-44AC-BBA7-ECEC111EC298</title>
    <g id="Phase-1-design" stroke="none" stroke-width="1" fill="none" fill-rule="evenodd">
        <g id="S&amp;E---How-does-it-work?-small" transform="translate(-327.000000, -795.000000)" fill="#fff" fill-rule="nonzero">
            <g id="How-does-it-work-copy" transform="translate(258.000000, 118.000000)">
                <g id="Group" transform="translate(59.000000, 614.000000)">
                    <g id="Research-support" transform="translate(0.000000, 54.000000)">
                        <g id="np_search_3505638_231F20" transform="translate(10.000000, 9.000000)">
                            <path d="M3.0147182,3.01583626 C7.03479316,-1.00527875 13.5523017,-1.00527875 17.5734167,3.01583626 C21.1486078,6.59102743 21.5427889,12.1540249 18.7515917,16.1657794 L25.6084183,22.5522409 C26.1396267,23.0468653 26.1213477,23.9051192 25.6084183,24.4180487 L24.4180487,25.6084183 C23.9051192,26.1213477 23.0468913,26.1396267 22.5522409,25.6084183 L16.1657794,18.7515917 C12.1516848,21.543621 6.59206749,21.150636 3.01583626,17.5734167 C-1.00527875,13.5523017 -1.00527875,7.03479316 3.01583626,3.0147182 L3.0147182,3.01583626 Z M4.50777004,4.5088881 C1.31141912,7.70523901 1.31141912,12.885236 4.50777004,16.082627 C7.70724112,19.282098 12.8820378,19.281058 16.0815089,16.082627 C19.2778598,12.885236 19.2788999,7.70627907 16.0815089,4.5088881 C12.885158,1.31253718 7.70516101,1.31253718 4.50777004,4.5088881 Z" id="Shape"></path>
                            <path d="M6.65215844,6.28212883 C6.36997283,6.57262372 5.91141824,6.57262372 5.62830587,6.28212883 C5.34612026,5.99258486 5.34612026,5.52207286 5.62830587,5.23157797 C8.20421495,2.58947401 12.3793738,2.58947401 14.9543324,5.23157797 C15.2374448,5.52207286 15.2374448,5.99258486 14.9543324,6.28212883 C14.67122,6.57262372 14.2135922,6.57262372 13.9304798,6.28212883 C11.920843,4.22008812 8.66174773,4.22008812 6.6511604,6.28212883 L6.65215844,6.28212883 Z" id="Path"></path>
                        </g>
                    </g>
                </g>
            </g>
        </g>
    </g>
</svg>
