<?xml version="1.0" encoding="UTF-8"?>
<svg width="26px" height="26px" viewBox="0 0 26 26" version="1.1" xmlns="http://www.w3.org/2000/svg" xmlns:xlink="http://www.w3.org/1999/xlink">
    <title>E16DD3A8-D5D1-4E66-9EC4-B200BFC6C1FC</title>
    <g id="Phase-1-design" stroke="none" stroke-width="1" fill="none" fill-rule="evenodd">
        <g id="S&amp;E---How-does-it-work?-small" transform="translate(-327.000000, -869.000000)" fill="#214B7A" fill-rule="nonzero">
            <g id="How-does-it-work-copy" transform="translate(258.000000, 118.000000)">
                <g id="Group" transform="translate(59.000000, 614.000000)">
                    <g id="Research-support" transform="translate(0.000000, 54.000000)">
                        <g id="Additional-services-icon" transform="translate(0.000000, 74.000000)">
                            <g id="np_subtitle_3499111_231F20" transform="translate(10.000000, 9.000000)">
                                <path d="M20.5833131,26 L5.41668689,26 C3.97993072,26 2.60273173,25.4299082 1.58707043,24.4129296 C0.570091813,23.3973029 0,22.0201386 0,20.5833131 L0,5.41668689 C0,3.97993072 0.570091813,2.60273173 1.58707043,1.58707043 C2.60269706,0.570091813 3.97986139,0 5.41668689,0 L20.5833131,0 C22.0200693,0 23.3972683,0.570091813 24.4129296,1.58707043 C25.4299082,2.60269706 26,3.97986139 26,5.41668689 L26,20.5833131 C26,22.0200693 25.4299082,23.3972683 24.4129296,24.4129296 C23.3973029,25.4299082 22.0201386,26 20.5833131,26 Z M5.41668689,2.16673022 C3.62241434,2.16673022 2.16669556,3.62244901 2.16669556,5.41672156 L2.16669556,20.5833478 C2.16669556,22.3776203 3.62241434,23.8333391 5.41668689,23.8333391 L20.5833131,23.8333391 C22.3775857,23.8333391 23.8333044,22.3776203 23.8333044,20.5833478 L23.8333044,5.41672156 C23.8333044,3.62244901 22.3775857,2.16673022 20.5833131,2.16673022 L5.41668689,2.16673022 Z" id="Shape"></path>
                                <path d="M13.6782609,21.4782609 L5.53913043,21.4782609 C4.97700953,21.4782609 4.52173913,20.9724049 4.52173913,20.3478261 C4.52173913,19.7232473 4.97700953,19.2173913 5.53913043,19.2173913 L13.6782609,19.2173913 C14.2403818,19.2173913 14.6956522,19.7232473 14.6956522,20.3478261 C14.6956522,20.9724049 14.2403818,21.4782609 13.6782609,21.4782609 Z" id="Path"></path>
                                <path d="M20.3478261,21.4782609 L18.0869565,21.4782609 C17.4623777,21.4782609 16.9565217,20.9724049 16.9565217,20.3478261 C16.9565217,19.7232473 17.4623777,19.2173913 18.0869565,19.2173913 L20.3478261,19.2173913 C20.9724049,19.2173913 21.4782609,19.7232473 21.4782609,20.3478261 C21.4782609,20.9724049 20.9724049,21.4782609 20.3478261,21.4782609 Z" id="Path"></path>
                                <path d="M20.4608696,16.9565217 L12.3217391,16.9565217 C11.7596182,16.9565217 11.3043478,16.4506657 11.3043478,15.826087 C11.3043478,15.2015082 11.7596182,14.6956522 12.3217391,14.6956522 L20.4608696,14.6956522 C21.0229905,14.6956522 21.4782609,15.2015082 21.4782609,15.826087 C21.4782609,16.4506657 21.0229905,16.9565217 20.4608696,16.9565217 Z" id="Path"></path>
                                <path d="M7.91304348,16.9565217 L5.65217391,16.9565217 C5.02759513,16.9565217 4.52173913,16.4506657 4.52173913,15.826087 C4.52173913,15.2015082 5.02759513,14.6956522 5.65217391,14.6956522 L7.91304348,14.6956522 C8.53762226,14.6956522 9.04347826,15.2015082 9.04347826,15.826087 C9.04347826,16.4506657 8.53762226,16.9565217 7.91304348,16.9565217 Z" id="Path"></path>
                            </g>
                        </g>
                    </g>
                </g>
            </g>
        </g>
    </g>
</svg>