<?xml version="1.0" encoding="UTF-8"?>
<svg width="20px" height="20px" viewBox="0 0 82 82" version="1.1" xmlns="http://www.w3.org/2000/svg" xmlns:xlink="http://www.w3.org/1999/xlink">
    <title>np_done_1382561_00296B</title>
    <g id="Symbols" stroke="none" stroke-width="1" fill="none" fill-rule="evenodd">
        <g id="np_done_1382561_00296B" fill="#FFFFFF" fill-rule="nonzero">
            <path d="M0,41 C0,63.602 18.398,82 41,82 C63.602,82 82,63.602 82,41 C82,18.398 63.602,0 41,0 C18.398,0 0,18.398 0,41 Z M20.102,39 C21.9028,37.1992 24.8012,37.1992 26.5004,39 L32.3988,44.8984 C33.19958,45.69918 34.598,45.69918 35.3988,44.8984 L55.5008,24.7964 C57.3016,22.9956 60.2,22.9956 61.8992,24.7964 C63.7,26.5972 63.7,29.4956 61.8992,31.1948 L37.1022,55.9998 C35.3014,57.8006 32.403,57.8006 30.7038,55.9998 L20.1018,45.3978 C18.301,43.6009 18.301,40.8001 20.1018,38.9994 L20.102,39 Z" id="Shape"></path>
        </g>
    </g>
</svg>
