<?xml version="1.0" encoding="UTF-8"?>
<svg width="30px" height="24px" viewBox="0 0 30 24" version="1.1" xmlns="http://www.w3.org/2000/svg" xmlns:xlink="http://www.w3.org/1999/xlink">
    <title>B0F24D82-B7B2-4F49-B9B6-06903E22D3D7</title>
    <g id="Phase-1-design" stroke="none" stroke-width="1" fill="none" fill-rule="evenodd">
        <g id="S&amp;E---How-does-it-work?-small" transform="translate(-326.000000, -946.000000)" fill="#214B7A" fill-rule="nonzero">
            <g id="How-does-it-work-copy" transform="translate(258.000000, 118.000000)">
                <g id="Group" transform="translate(59.000000, 614.000000)">
                    <g id="Research-support" transform="translate(0.000000, 54.000000)">
                        <g id="Additional-services-icon" transform="translate(0.000000, 148.000000)">
                            <g id="Icons-/-Editing" transform="translate(9.000000, 12.000000)">
                                <g id="np_video-edit_16203_231F20" transform="translate(0.000000, 0.000000)">
                                    <path d="M12.9388462,22.9776923 C12.7300115,22.9776923 12.5256923,22.9025731 12.3649231,22.7598423 C12.1305462,22.5525115 12.0268808,22.2354962 12.0914846,21.9289962 L13.3039077,16.3432269 C13.3354581,16.1974923 13.4045692,16.0637808 13.5022231,15.9526115 L23.6660692,4.48184231 C25.0212231,3.04853462 27.4070692,3.00499615 28.7953,4.31808077 C30.2436077,5.68827308 30.3067231,7.98092692 28.9365269,9.42923462 L18.7922962,20.8776962 C18.6931385,20.9888731 18.5684385,21.0730077 18.4287154,21.1210846 L13.2229462,22.9299692 C13.1313,22.9615196 13.0351462,22.9780462 12.9389923,22.9780462 L12.9388462,22.9776923 Z M14.9490769,16.9303846 L14.1122308,20.7884615 L17.6473846,19.561 L27.6623846,8.26138462 C28.3955385,7.48465385 28.3625,6.29023077 27.6083,5.57657692 C26.8796462,4.88696154 25.6356462,4.92003846 24.9445308,5.65019615 L14.9490769,16.9303846 Z" id="Shape"></path>
                                    <path d="M18.1446154,21.1688462 C17.9417923,21.1688462 17.7389615,21.0982346 17.5751923,20.9540038 L13.5005769,17.3873115 C13.1415038,17.0718077 13.1054615,16.5249269 13.4194462,16.16585 C13.7364538,15.8067769 14.2818308,15.7722346 14.6409077,16.0847192 L18.7155231,19.6514115 C19.0745962,19.9669154 19.1106385,20.5137962 18.7966538,20.8728731 C18.6253808,21.0681846 18.385,21.1688462 18.1446154,21.1688462 Z" id="Path"></path>
                                    <path d="M26.5280769,7.52384615 C26.2967077,7.52384615 26.0773462,7.4322 25.9166154,7.26993846 C25.7543577,7.10918077 25.6627077,6.87782308 25.6627077,6.65847692 C25.6627077,6.42710769 25.7423346,6.20924615 25.9045962,6.04701538 C26.25015,5.71198077 26.8045192,5.724 27.1275577,6.03499615 C27.3003346,6.20777308 27.3934846,6.42711154 27.3934846,6.65849615 C27.3934846,6.87784615 27.3018385,7.10922692 27.1395769,7.26995769 C26.9668,7.43071538 26.7459615,7.52386538 26.5281154,7.52386538 L26.5280769,7.52384615 Z" id="Path"></path>
                                    <path d="M10.9703846,19.8438846 L2.83769231,19.8438846 C1.31426923,19.8438846 0.0747692308,18.6058462 0.0747692308,17.0824231 L0.0747692308,2.86357692 C0.0747692308,1.33865385 1.31426923,0.0991538462 2.83769231,0.0991538462 L16.7934615,0.0991538462 C18.3168846,0.0991538462 19.5563846,1.33865385 19.5563846,2.86357692 L19.5563846,5.70911538 C19.5563846,6.18688462 19.1687692,6.5745 18.691,6.5745 C18.2132308,6.5745 17.8256154,6.18688462 17.8256154,5.70911538 L17.8256154,2.86357692 C17.8256154,2.29415385 17.3628846,1.82992308 16.7934615,1.82992308 L2.83769231,1.82992308 C2.26826923,1.82992308 1.80553846,2.29265385 1.80553846,2.86357692 L1.80553846,17.0839615 C1.80553846,17.6518846 2.26826923,18.1146154 2.83769231,18.1146154 L10.9703846,18.1146154 C11.4481538,18.1146154 11.8357692,18.5022308 11.8357692,18.98 C11.8357692,19.4562692 11.4481538,19.8438846 10.9703846,19.8438846 L10.9703846,19.8438846 Z" id="Path"></path>
                                    <path d="M7.53307692,4.53269231 L4.45765385,4.53269231 C3.97988462,4.53269231 3.59226923,4.14507692 3.59226923,3.66730769 C3.59226923,3.18953846 3.97988462,2.80192308 4.45765385,2.80192308 L7.53307692,2.80192308 C8.01084615,2.80192308 8.39846154,3.18953846 8.39846154,3.66730769 C8.39846154,4.14507692 8.00934615,4.53269231 7.53307692,4.53269231 Z" id="Path"></path>
                                    <path d="M14.4319231,4.53269231 L11.355,4.53269231 C10.8772308,4.53269231 10.4896154,4.14507692 10.4896154,3.66730769 C10.4896154,3.18953846 10.8772308,2.80192308 11.355,2.80192308 L14.4319231,2.80192308 C14.9096923,2.80192308 15.2973077,3.18953846 15.2973077,3.66730769 C15.2973077,4.14507692 14.9096923,4.53269231 14.4319231,4.53269231 Z" id="Path"></path>
                                    <path d="M7.53307692,16.9592308 L4.45765385,16.9592308 C3.97988462,16.9592308 3.59226923,16.5716154 3.59226923,16.0938462 C3.59226923,15.6160769 3.97988462,15.2284615 4.45765385,15.2284615 L7.53307692,15.2284615 C8.01084615,15.2284615 8.39846154,15.6160769 8.39846154,16.0938462 C8.39846154,16.5716154 8.00934615,16.9592308 7.53307692,16.9592308 Z" id="Path"></path>
                                    <path d="M14.4319231,16.9592308 L11.355,16.9592308 C10.8772308,16.9592308 10.4896154,16.5716154 10.4896154,16.0938462 C10.4896154,15.6160769 10.8772308,15.2284615 11.355,15.2284615 L14.4319231,15.2284615 C14.9096923,15.2284615 15.2973077,15.6160769 15.2973077,16.0938462 C15.2973077,16.5716154 14.9096923,16.9592308 14.4319231,16.9592308 Z" id="Path"></path>
                                    <path d="M8.04692308,13.7438462 C7.88916923,13.7438462 7.73291923,13.7017769 7.59319231,13.6161423 C7.33778462,13.4583885 7.18153846,13.17895 7.18153846,12.87845 L7.18153846,7.06883462 C7.18153846,6.76835385 7.33778846,6.48891154 7.59319231,6.33114231 C7.8486,6.17489231 8.16711538,6.16287308 8.43753846,6.29658692 L14.1571538,9.20224077 C14.4486192,9.34947538 14.6304231,9.64847154 14.6304231,9.97447154 C14.6304231,10.3004715 14.4471308,10.5979715 14.1571538,10.7467023 L8.43753846,13.6493562 C8.31434231,13.7124562 8.18062692,13.7440062 8.04692308,13.7440062 L8.04692308,13.7438462 Z M8.91230769,8.47807692 L8.91230769,11.4678462 L11.8555,9.97296154 L8.91230769,8.47807692 Z" id="Shape"></path>
                                </g>
                            </g>
                        </g>
                    </g>
                </g>
            </g>
        </g>
    </g>
</svg>