

<svg xmlns="http://www.w3.org/2000/svg" viewBox="0 0 383 308">
  <g fill="none" fill-rule="nonzero">
    <path fill="#F2F4F9" d="M216.750799 70.084751c-.282032.370899-.531009.7657667-.744077 1.1800766-.094486.2124138-.212594.4248276-.330701.6372414-.198406.2882264-.423827.5569229-.673213.8024521-1.12124 1.0783945-2.174421 2.225273-3.153469 3.434023-1.925151 2.5843678-2.562931 6.2308046-.224404 8.8151724 2.338528 2.5843678 5.905373 2.3601532 8.633655.2714176 3.354252-2.4663602 6.507721-5.7823755 7.299041-10.0424521.708644-3.8116475-1.322804-7.8711111-5.586483-7.930115-2.101847.0232289-4.056187 1.0835124-5.220349 2.832184z"/>
    <path fill="#F2F4F9" d="M245.651693 63.2993103C165.255949 29.0652874 119.961741-27.212567 65.44334 15.1875862-13.0981166 76.2801533-28.0387095 214.620536 88.3443752 281.696092c13.2280348 5.428352 26.6214198 10.443678 39.8848868 15.777624.988191.389678 1.858834 1.027881 2.5275 1.852721 3.48417 1.23908 7.003772 2.501762 10.546995 3.670038 11.392805 2.646522 23.020405 4.156556 34.711781 4.507893h.224404c.862514-.152363 1.747289-.124235 2.598364.082605 102.753485 1.392491 189.373491-85.944981 201.609423-129.97364 15.790967-57.080306-54.388482-80.0918004-134.796036-114.3140227z"/>
    <path fill="#E0E0E0" d="M32.4559282 207.209655c-5.5110398-3.453237-11.7416244-5.596975-18.2121693-6.266207-2.9763078-.30682-6.22426281-.212414-8.61003337 1.581303-.55865323.325072-.90094149.923571-.89764065 1.569502.14341886.452381.4453656.837876.85039767 1.08567 7.40533735 5.640767 18.61373465 6.360613 26.86944565 2.029732M31.9834984 206.690421c-4.2361928-3.08874-8.1887146-6.548224-11.8107453-10.337471-3.6191578-3.812595-6.1621533-8.515605-7.3699051-13.629885-.4811071-1.530041-.2697396-3.193692.5787265-4.555096 9.3777318 7.316475 16.7476369 16.78069 18.5546809 28.522452"/>
    <path fill="#E0E0E0" d="M32.373253 207.138851c-.86528-5.115958-.7892337-10.346716.2244042-15.435403 1.063096-5.125692 4.0136545-9.665713 8.2675217-12.721226 1.6298829 3.776245.9330489 8.142529-.2125934 12.095786-1.8061597 6.12811-4.6028171 11.919993-8.2793325 17.146513M41.5502021 223.589119c-5.5864825.684444-10.4406988 3.622835-14.609892 7.387279-4.1880719 3.806674-7.1032222 8.808091-8.3501969 14.326131 5.4683751-.342222 10.109998-4.189272 13.4760604-8.520154 3.3660625-4.330881 5.70459-9.062988 9.4485963-13.110651M43.5462181 226.22069c-4.4605445-11.320409-2.8872643-24.126924 4.1810039-34.03341 3.1770905 11.293333 2.0078267 24.049961-4.1573824 34.03341M55.6876643 240.664828c-10.4258572-.642696-20.2288393 4.99541-24.9088619 14.32613-.3070794.61364-.5787265 1.404291-.1653504 1.947126.435896.427116 1.0542829.612475 1.6535043.495632 4.9014593-.31862 9.2596244-3.268812 12.8500909-6.63203 3.5904666-3.363219 6.7085034-7.245671 10.6296709-10.148659M55.2979097 239.885977c-2.6090567-8.390649-2.776998-17.349495-.4842405-25.831877.9094274-3.327816 2.4448243-6.832644 5.5274288-8.402146.2305272-.186536.5408408-.241563.8215335-.145681s.4923409.329207.5603237.617712c1.0377862 2.329711 1.484043 4.879333 1.299182 7.422682-.1808988 2.534482-.5759982 5.049139-1.1810745 7.517088-.9684812 4.602299-1.4763432 9.535019-4.0038427 13.500076-.5929823.955068-1.1293258 1.944101-1.6062614 2.961993-.4724298 1.014866-.4842405 1.368889-.9212381 2.15954M87.4349478 244.665287c-2.362149-9.051187.1535397-20.061302 5.9053727-27.436781.4251869-.554636.9802919-1.180077 1.6653151-1.07387 1.0511563.094406 1.3228035 1.498697 1.2755605 2.548966-.4321192 9.308275-3.481753 18.306296-8.7990053 25.961685M90.3403912 246.647816c11.0076148 2.855786 23.6214908.082605 32.7866288-6.667433-5.478777-2.74105-11.736714-3.508041-17.716118-2.171341-5.9053724 1.357088-11.350126 4.012261-15.0350786 8.838774M92.7852155 240.617625c6.1652091-10.042453 17.9759545-16.591878 29.7512675-17.181916-1.358236 4.77931-5.291214 8.496552-9.732054 10.750498-4.44084 2.253946-9.448596 3.221609-14.2791913 4.16567-1.90153.365824-4.5117047.778851-5.7400222 2.265748M88.0491066 211.375326c1.8704322-5.646607 3.148913-11.472028 3.8148707-17.382529.4488084-5.900383-.3897545-12.131188-3.4723591-17.229119-5.7636437 11.139924-6.3423702 24.144368-.507862 35.237088M107.44235 201.59249c6.732125-12.225593 20.468022-21.996628 34.369269-23.365517-5.362078 13.334866-19.995591 23.601533-34.369269 23.365517M103.237725 203.988046c10.039134 1.522299 18.590113 7.930115 27.979656 11.800766 1.970239.940812 4.153336 1.347762 6.330559 1.180077 2.076724-.024065 3.917459-1.341185 4.608957-3.297895.691498-1.95671.086617-4.136647-1.514541-5.458274-1.331308-1.223768-2.893119-2.170493-4.59438-2.784981-10.216295-4.248275-21.176667-4.354482-31.889013-1.770114"/>
    <path fill="#E0E0E0" d="M97.3914062 211.021303c2.2676631.649042 3.0471718 1.829118 4.8542168 3.363218 6.15254 5.21781 13.428046 8.945376 21.259341 10.892107.814942.200613 1.877909.271418 2.279474-.46023.401565-.731647-.094486-1.404291-.555105-1.982528-3.408828-3.992154-7.831557-6.992502-12.802848-8.685364-4.901459-1.817318-9.141517-4.012261-14.9878358-3.54023M90.8364425 168.526743c8.3259055 7.664213 19.5028325 11.460986 30.7788025 10.455479.513527.012936 1.013844-.163497 1.405479-.495632.779509-.849655-.15354-2.147739-1.062967-2.843985-9.047031-7.080459-20.007403-9.971647-31.1213145-7.080459"/>
    <path fill="#E0E0E0" d="M98.6079129 165.670958c11.0520581-8.127447 25.3280961-10.482845 38.4085441-6.337012-4.830595 4.720307-11.539098 7.328276-18.294845 8.024521-6.74002.616356-13.536009.045176-20.0782668-1.687509M95.5134977 146.15249c-.8858059-9.027586-.3070794-16.155249-.9330489-25.218237 0-.731648-.2125934-1.604904-.8858059-1.864521-.9448596-.365824-1.7361796.802452-2.043259 1.758314-2.665315 8.519581-1.2443682 17.791482 3.850303 25.123831"/>
    <path fill="#E0E0E0" d="M94.8639067 147.143755c5.9038473-3.796714 10.9910323-8.731167 14.9642143-14.514943 2.964497-4.047663 5.456564-8.885977 4.724298-13.842299-4.212546.109749-8.162282 2.069995-10.795021 5.357548-2.583159 3.263929-4.4575683 7.029676-5.5038074 11.057318-1.1810746 3.976859-2.043259 8.059924-3.4487377 11.954177M109.568285 143.06069c13.472892-4.975198 25.945089-12.321102 36.825904-21.689809-4.393598-1.770115-9.448597-.719847-13.830383 1.062069-10.050944 4.047663-18.259412 10.892107-23.184493 20.533334M98.9976675 152.088276c6.8029895.743448 13.7122755 1.180076 20.4562105.094406 6.743936-1.085671 12.897334-3.729042 19.086165-6.337012.542058-.149345 1.006696-.499639 1.299182-.979463.202665-.589278.019267-1.242374-.460619-1.640307-.47987-.370465-1.036861-.628562-1.629883-.755249-6.732125-1.888122-14.007544-1.003065-20.633372 1.180077-6.316086 2.156503-12.388501 4.968654-18.1176835 8.390345M60.1757476 168.833563c-4.6298122-9.358007-4.3345436-20.273716-.3188902-29.914942 2.8109574 4.295479 3.1652798 9.759233 2.645607 14.868965-.5196728 5.109732-2.0786912 10.372874-2.1731771 15.506207M41.6564989 159.487356c-11.7519149-.13256-23.0173068 4.681596-31.0386388 13.264062 5.7872652.896858 11.7398809-.590039 16.9956625-3.150805 5.1772525-2.771528 10.05691-6.065381 14.5626491-9.830038M29.1961625 155.333487c-5.6691578-.46023-11.1139114-1.180077-16.5350435.507433-5.4211321 1.687509-10.40526664 5.451954-12.62568676 10.691494 5.34600794.433169 10.71025536-.577636 15.53113016-2.92659 4.7882163-2.348575 9.3607874-5.112702 13.6650323-8.260537M47.6445468 155.522299c-5.102242-3.339617-10.3344022-6.738238-16.2752071-8.118927-5.940805-1.38069-12.802848-.365824-16.9484196 4.106666 4.8069733 2.820383 10.6296708 3.150805 16.2043426 3.150805 5.5746718 0 12.4012826-.070805 17.6452536 1.781916"/>
    <path fill="#E0E0E0" d="M47.727222 155.793716c-8.7163301-8.555555-12.0115281-23.908352-8.5037367-35.602911 6.8743434 10.526106 9.8798825 23.109509 8.5037367 35.602911M71.6321706 131.566743c1.6416936-3.811647 2.7991466-7.823908 4.263679-11.70636 1.3400118-3.955598 3.4023715-7.628698 6.0825339-10.833103 2.7260506-3.20361 6.6031085-5.208314 10.7950212-5.581763-2.7098791 11.905742-10.3107757 22.121659-20.9404515 28.144828M67.297627 136.617471c-2.7282822-3.740843-5.9053727-8.815172-9.554893-11.611954-3.6495203-2.796781-8.4919259-4.484291-12.9918199-3.410421 4.728658 8.275532 13.0828712 13.841759 22.5467129 15.022375M68.1598114 131.873563c-1.953562-4.456792-3.3957853-9.120263-4.2991113-13.901302-.8991295-4.831311-.1286952-9.8245 2.1849879-14.16092 4.7242982 9.039387 6.3187488 18.739617 2.3621491 28.156628M71.6676028 103.823142c2.7164714-8.9449811 10.9249394-15.5416094 19.7829985-18.5744064 1.0958013-.4454873 2.2821222-.6234873 3.4605484-.5192337 1.2045562.136719 2.2121766.9764665 2.5629317 2.1359387.3188901 1.5222989-.9448596 2.8911878-2.1259342 3.9060537-6.9112096 5.8992982-14.9465307 10.3390767-23.6214907 13.0516477M71.7738995 96.5066667c.3425116-5.7705747.696834-11.6355556 2.5747425-17.0993104 1.8779085-5.4637548 5.5038073-10.6206896 10.7832105-12.9808429.8858059 5.8295786-1.6889366 11.6355556-4.7951626 16.6508812-3.106226 5.0153257-6.8384216 9.7592338-8.7045193 15.3409962M71.6321706 100.483525c-2.2440417-6.5258239-2.4802566-14.8217625-6.3896133-20.5097319-2.7282822-3.9650575-7.0864472-6.6792337-9.4485963-10.8921073-1.4299108 4.0369584-1.2351245 8.4709494.5432943 12.3672031 1.7825954 3.8499431 4.2338106 7.3538573 7.2399869 10.349272 2.8818219 3.0681993 5.4093214 5.4283525 8.0549284 8.6853641"/>
    <path fill="#E0E0E0" d="M71.4668201 271.228812c.1378647.071654.2719013.150433.4015654.236016 0-17.819158.1062967-45.244138.0944859-76.020537 0-53.717088-.1653504-97.238314-.3307008-97.238314-.1653505 0-.2834579 43.521226-.2834579 97.238314 0 30.64659 0 57.965364.1181074 75.784521z"/>
    <path fill="#E0E0E0" d="M109.745446 162.260536c-.520908.259595-1.067051.465213-1.629883.61364l-4.511705 1.522299c-3.8030598 1.298084-9.0234092 3.162605-14.692567 5.487356-5.6691578 2.324751-10.9013179 4.354483-13.9248688 6.962453-1.1978619 1.008407-2.1509312 2.275402-2.7873359 3.70544-.4369975 1.014866-.507862 1.640307-.5669157 1.62867-.0590538-.011965 0-.153574 0-.448593.0676434-.433561.1743744-.860124.3188901-1.274483.5739596-1.516548 1.5106285-2.869721 2.7282822-3.941456 1.8417255-1.550281 3.9035023-2.818913 6.1179661-3.764444 2.362149-1.180077 5.0904312-2.360154 7.9368208-3.469426 5.6809685-2.360153 10.948561-4.142069 14.7870532-5.333946 1.925152-.601839 3.543224-1.038467 4.582569-1.333487.534493-.170746 1.084297-.289308 1.641694-.354023zM122.229404 131.625747s-.141729.188812-.460619.495632l-1.393668 1.309885-5.22035 4.720307-17.3736062 15.459004c-6.7793679 6.030191-12.6374976 11.800766-16.700394 16.131647-2.0432589 2.171341-3.6377095 3.965058-4.7242981 5.215939-.507862.590038-.9212381 1.062069-1.2637498 1.439693-.1344021.178443-.2889641.340794-.460619.483832 0 0 .1062967-.200613.3661331-.554636.2598364-.354023.649591-.873257 1.1810745-1.522299 1.0393456-1.298084 2.598364-3.150805 4.59438-5.357548 5.2333171-5.715185 10.7603236-11.154805 16.5586649-16.296858 6.8148006-6.018391 12.9918196-11.423142 17.5035246-15.340996l5.350268-4.590498 1.476343-1.180077c.171123-.160602.361554-.29934.566916-.413027z"/>
    <path fill="#E0E0E0" d="M90.4584987 159.770575c-.1771612-.082606 1.1810745-3.351418 2.6574177-7.481686 1.4763431-4.130268 2.0905019-7.623295 2.2676631-7.587893-.1476037 2.667873-.7135373 5.296045-1.6771259 7.788506-.6011271 1.782631-1.307063 3.528248-2.1141234 5.227739-.2733648.737101-.6555366 1.429202-1.1338315 2.053334zM71.7148458 186.109885c-.3890496-.357198-.7412029-.752542-1.0511564-1.180077l-2.6692284-3.422222c-2.2558524-2.914789-5.3620784-6.915249-8.8462483-11.305134-3.4841699-4.389885-6.6966926-8.354942-9.0588417-11.210728l-2.7400929-3.375019c-.3509078-.405392-.6669806-.839625-.9448596-1.298084.4340194.350888.8298895.746424 1.1810745 1.180076.696834.755249 1.6889366 1.864521 2.8936326 3.257012 2.3621491 2.77318 5.6691578 6.667433 9.1651384 11.069119 3.4959807 4.401685 6.543153 8.449348 8.7045194 11.423141 1.0747778 1.486897 1.9369622 2.702376 2.5156887 3.54023.3258627.411839.6106735.854504.8503737 1.321686z"/>
    <path fill="#E0E0E0" d="M63.3646488 175.394789c-1.7037009-1.853123-2.9210794-4.099316-3.5432236-6.537624-.6566505-2.133863-.9246725-4.368158-.7913199-6.596629h.2716471c-.1181074.507433-.2125934.76705-.2598364.76705-.047243 0 0-.295019 0-.814253h.2716472c.1431533 2.173807.5193128 4.325995 1.1220208 6.419617.8003155 2.326067 1.7795942 4.586763 2.9290648 6.761839zM52.5814383 161.84751c-.7534629-.57083-1.5746242-1.046464-2.4448243-1.416092-2.1974798-.650249-4.5073167-.831181-6.7793678-.531035-2.3024945.172361-4.5862135.5395-6.8266108 1.097471-.9192257.292726-1.8587427.517546-2.8109574.672644.8407874-.491968 1.747547-.861518 2.6928499-1.097471 2.2432635-.691507 4.5567246-1.130851 6.8974753-1.309885 2.3614836-.308246 4.7624928-.049334 7.003772.755249.944525.32992 1.7457261.976177 2.2676631 1.829119zM50.089371 158.590498c0 .094406-1.4291001-.566437-3.7440062-1.357088-6.0724295-2.085524-12.5784946-2.581192-18.8971926-1.439694-2.3621491.436629-3.8739245.885058-3.9093567.778851.309793-.186094.6435806-.329025.9921026-.424828.9241359-.320083 1.8667743-.584114 2.8227681-.790651 6.3711607-1.391431 13.0107632-.886805 19.0979753 1.451494.9139281.336308 1.8054775.730465 2.6692284 1.180077.3524901.148486.6793333.351595.9684811.601839zM71.6321706 144.689195c-1.1135681-3.08436-2.0249239-6.237904-2.7282822-9.440613-.911417-3.157748-1.6214868-6.370069-2.1259342-9.617624 1.1172935 3.083152 2.0287207 6.236943 2.7282822 9.440613.9129656 3.157354 1.6230573 6.369775 2.1259342 9.617624z"/>
    <path fill="#E0E0E0" d="M71.797521 144.689195c-.8662358-1.964034-1.8768496-3.861278-3.0235508-5.676168-1.282729-1.713191-2.7790326-3.255818-4.452651-4.590498.6338591.162307 1.2231469.464768 1.7243688.885057 1.2623881.928054 2.3602364 2.060874 3.247955 3.351418 1.3536603 1.753456 2.2176584 3.834258 2.503878 6.030191zM71.6676503 269.517701s-.1890194-1.050268-.6850707-2.902988c-.7181844-2.599036-1.6913839-5.120892-2.9054434-7.528889-3.0117401-6.148199-8.4919259-13.948506-15.4484549-21.748813-3.4487377-3.941455-6.8029893-7.658697-9.6375682-11.210727-2.5496498-3.131299-4.8555504-6.453093-6.8974753-9.936246-1.3689276-2.349334-2.5307585-4.813177-3.4723591-7.363678-.3188902-.908659-.5551051-1.616705-.6850233-2.100536-.0899627-.243498-.1494673-.49717-.1771611-.755249.0590537 0 .3661331.991264 1.0865885 2.77318 1.0322362 2.493888 2.2481399 4.907863 3.6377096 7.222069 2.0792655 3.428317 4.404184 6.70175 6.956529 9.794636 2.8463896 3.54023 6.2006413 7.210268 9.6611897 11.163525 6.9801505 7.823908 12.4367149 15.71862 15.353969 21.961226 1.1860141 2.45126 2.1046636 5.022888 2.7400929 7.670498.1673549.720543.2974455 1.449223.3897546 2.183142.0563043.255762.0840324.516977.0827227.77885z"/>
    <path fill="#E0E0E0" d="M106.084115 230.634176c-.581537.37402-1.184964.712915-1.807044 1.014866-1.647349.910985-3.226272 1.940362-4.7242984 3.08-2.1891301 1.70703-4.2424811 3.581103-6.1415876 5.605364-2.1613664 2.277548-4.3817865 4.92092-6.6494496 7.753104-4.5235155 5.676168-8.7635731 10.703295-11.3028833 14.715555-1.2873713 1.99433-2.2322309 3.670038-2.8463897 4.850115-.2919633.626096-.6233277 1.233084-.9921026 1.817318.0398258-.179043.0992366-.353168.1771612-.519234.1299182-.31862.3070794-.802452.602348-1.404291.7883837-1.714453 1.6838284-3.377706 2.6810392-4.979923 2.4684458-4.106667 6.6730711-9.204598 11.1965866-14.880766 2.2676631-2.832184 4.5117047-5.487357 6.7085034-7.753104 1.9454192-2.018794 4.050619-3.87754 6.2951272-5.558161 1.5256846-1.115312 3.1414346-2.1021 4.8305946-2.950191.602348-.29502 1.086589-.483832 1.41729-.61364.330701-.129809.543294-.236016.555105-.177012z"/>
    <path fill="#E0E0E0" d="M106.780949 243.237395c-1.258213.265024-2.532634.446367-3.814871.542835-3.0598494.317263-6.0842083.913723-9.0352202 1.781916-2.9202969.951519-5.6593336 2.3877-8.1021713 4.248275-1.8660978 1.439694-2.7400929 2.631571-2.8227682 2.560767-.0826752-.070805.141729-.342222.5551051-.873257.5824595-.745256 1.2393775-1.429297 1.9605837-2.041533 2.4149367-2.011369 5.1933443-3.541607 8.1848465-4.507892 2.9906706-.889467 6.0738917-1.43194 9.1887604-1.616705 1.289189-.156291 2.590466-.187907 3.885735-.094406z"/>
    <path fill="#E0E0E0" d="M84.0925069 250.990498c-.2007827-.118008 1.5117754-2.737778 2.8463896-6.266207 1.3346143-3.528429 1.5472077-6.679234 1.7716118-6.643831.0909286.679676.066974 1.369784-.0708644 2.041532-.1834636 1.642233-.555998 3.257825-1.1102101 4.814713-.5740575 1.54674-1.3146058 3.026585-2.2086094 4.413487-.3182216.609379-.7330197 1.163304-1.2283175 1.640306zM117.221648 196.81318c-.185388.133016-.38803.240207-.602348.318621l-1.795234.814253c-.779509.342222-1.736179.767049-2.810957 1.333486-1.074778.566437-2.362149 1.180077-3.63771 1.911724l-2.078691 1.180077c-.720455.413027-1.440911.908659-2.196798 1.38069-1.535397.93226-3.070794 2.076935-4.7242986 3.24521-7.0122989 5.228142-13.1307564 11.55663-18.1176834 18.739617-1.11021 1.675709-2.1967986 3.257012-3.0826045 4.814713-.4488083.77885-.9094274 1.498697-1.299182 2.242145l-1.1102101 2.112338c-.7440769 1.333486-1.2755605 2.607969-1.7952333 3.70544-.5196728 1.097472-.9212381 2.053334-1.1810745 2.843985l-.7558877 1.817318c-.0825027.215619-.1812071.424695-.2952686.625441.0254156-.227937.085143-.450731.1771611-.660843.1771612-.495633.3897546-1.109272.649591-1.864521.2598364-.755249.6377803-1.793717 1.1810746-2.902989.5432943-1.109272.9921026-2.360153 1.7125581-3.764444l1.0865885-2.14774c.3779439-.743448.8385629-1.486896 1.2755605-2.265747.8621844-1.593103 1.948773-3.186207 3.0589831-4.885517 2.465104-3.594014 5.2013441-6.994658 8.1848465-10.172261 3.0856874-3.135416 6.406267-6.031072 9.9328368-8.661762 1.6653155-1.180077 3.2243335-2.360153 4.7242985-3.209809.767698-.47203 1.499964-.955862 2.232231-1.357088l2.114123-1.180076c1.322803-.76705 2.598364-1.309885 3.696763-1.84092 1.0984-.531034 2.066881-.93226 2.870011-1.23908l1.842477-.708046c.235564-.111091.486319-.186652.744077-.224215z"/>
    <path fill="#E0E0E0" d="M89.9978796 215.045364c.2614461-.859139.7809743-1.617174 1.4881539-2.171341 1.6740811-1.466949 3.8093671-2.301971 6.0352909-2.360153 2.1754228-.031524 4.3353926.369619 6.3541806 1.180076.841708.27387 1.637844.671601 2.362149 1.180077-.869703-.176027-1.723075-.424717-2.551121-.743448-1.989032-.678508-4.0752784-1.029243-6.1770194-1.038468-2.0885951.045669-4.1079695.756814-5.7636437 2.029732-.6339941.592665-1.2185925 1.235969-1.7479903 1.923525zM85.9231724 219.234636c.8045288-1.77263 1.3800044-3.640354 1.7125581-5.558161.1240811-1.947943-.0069448-3.903736-.3897546-5.817778.0708645 0 .4133761.566437.7086447 1.616705.7456893 2.803282.3995899 5.784813-.9684811 8.343142-.5314835.955862-1.0039133 1.463295-1.0629671 1.416092zM214.14572792 54.8015054l9.96812235-.05388767.26826081 49.53889147-9.96812334.05388827z"/>
    <path fill="#E0E0E0" d="M181.637453 104.318774h181.613831v7.98911877H181.637453z"/>
    <path fill="#E0E0E0" d="M211.37691 108.165824h7.3699051v27.2479693H211.37691zM321.429435 108.165824h7.3699051v27.2479693h-7.3699051z"/>
    <path fill="#EBEBEB" d="M223.87211763 36.32797725l9.96812335-.05388766.36890638 68.12482636-9.96812334.05388827z"/>
    <path fill="#F5F5F5" d="M234.38601335 47.90202456l15.48388713-.15470814.55262517 55.2157854-15.48388713.15470795z"/>
    <path fill="#E0E0E0" d="M249.289402 59.6174713c-2.569016.2730658-5.154179.3637658-7.736038.2714176-2.581859.0923482-5.167022.0016482-7.736038-.2714176 2.569016-.2730659 5.154179-.3637659 7.736038-.2714177 2.581859-.0923482 5.167022-.0016482 7.736038.2714177zM249.289402 57.2927203c-2.569016.2730658-5.154179.3637659-7.736038.2714176-2.581859.0923483-5.167022.0016482-7.736038-.2714176 2.570043-.2581652 5.15445-.3448964 7.736038-.2596169 2.581588-.0852795 5.165995.0014517 7.736038.2596169zM249.289402 95.8812261c-2.569016.2730658-5.154179.3637658-7.736038.2714176-2.581859.0923482-5.167022.0016482-7.736038-.2714176 2.570043-.2581652 5.15445-.3448964 7.736038-.2596169 2.581588-.0852795 5.165995.0014517 7.736038.2596169zM249.289402 93.5682759c-2.570043.2581652-5.15445.3448963-7.736038.2596168-2.581588.0852795-5.165995-.0014516-7.736038-.2596168 2.569016-.2730659 5.154179-.3637659 7.736038-.2714177 2.581859-.0923482 5.167022-.0016482 7.736038.2714177zM241.80139 88.5057471c-.141729 0-.271648-5.5699617-.271648-12.4380076 0-6.868046.129919-12.4498085.271648-12.4498085s.271647 5.5699617.271647 12.4498085c0 6.8798467-.118108 12.4380076-.271647 12.4380076z"/>
    <path fill="#EBEBEB" d="M249.454753 62.5322605h16.8539336v41.6685057H249.454753z"/>
    <path fill="#E0E0E0" d="M231.561498 47.9347126c0 1.1609022-.700575 2.207267-1.774475 2.6504145-1.073901.4431475-2.309265.1956384-3.129145-.6269342-.81988-.8225725-1.062502-2.057903-.614555-3.1290595.447946-1.0711565 1.498076-1.7667843 2.65995-1.7620314.760093 0 1.488883.3025139 2.02524.8406325.536357.5381187.836101 1.2675342.832985 2.0269781zM227.817467 55.794023h1.7716118v40.5238314h-1.7716118z"/>
    <g>
      <path fill="#FFBE9D" d="M256.261754 140.6685982s12.140395-10.9190828 13.886535-11.5904827c1.746141-.6713999 15.856843-1.4959261 16.836097-.8245262.979254.6713999 15.585482 7.9272305 13.261228 9.2229146-2.324254 1.295684-12.494342-3.922389-12.494342-3.922389l-1.663553.2826947s8.825088 4.2639784 10.441448 5.9837045c1.616359 1.7197261.20057 3.5336838-1.439386 2.8976207-1.639956-.6360631-9.238027-4.7115783-9.816141-4.4759994-.578114.2355789 8.117193 4.8058099 8.931272 5.6892308 1.097237 1.1778948.519123 3.6161368-1.179824 2.9918518-.979255-.376926-9.01386-5.2416304-9.01386-5.2416304s6.099693 4.7115784 6.559825 5.5361044c.743289 1.295684-.54272 2.556031-1.934913 1.766842-.955658-.530053-5.144035-4.3228731-6.430044-5.0413888 0 0-1.392192 0-3.338903 2.2026628-.932061 1.071884-5.899123 7.067368-9.898728 4.428884l-4.412544 3.439452-8.294167-13.3455458z"/>
      <path fill="#EB996E" d="M300.210219 137.5000618c-1.008496.1884606-2.045316.164388-3.043947-.0706737-1.093822-.1709545-2.168529-.4470809-3.209123-.8245262-1.179824-.4829368-2.359649-1.0483262-3.657456-1.6372735l-2.748991-1.2839051h.176973c-2.416134.2301965-4.847552.2538404-7.267719.0706737 2.384464-.4642806 4.803702-.7282673 7.232325-.7891894H287.845658l2.725395 1.2367893 3.610263 1.6843893c.997404.3935287 2.022747.7124402 3.067544.9540946 1.816929.4947157 2.961359.4947157 2.961359.659621z"/>
      <path fill="#A0EAD3" d="M267.71184764 155.13891857l5.49974435-40.2401242c.15415733-1.1212852 1.18724253-1.90629272 2.30883838-1.75440907l59.84633182 8.1526479c1.12194324.15193104 1.90747409 1.1852343 1.75465216 2.30705698-.00004056.00029725-.00008112.0005945-.0010123.0007692l-5.49974444 40.24012419c-.15415752 1.12128518-1.18724302 1.90629266-2.30883848 1.75440907l-59.84633149-8.15264887c-1.12194372-.15193111-1.90747398-1.18523429-1.75465228-2.307056.00004046-.00029725.00008101-.0005945.00101228-.0007692z"/>
      <path fill="#4B5165" d="M299.112982 139.0902195l.448334-3.2392101c.029231-.228995.149462-.4366381.33364-.5762074.184178-.1395693.416833-.1993411.645614-.1658662.154269.0141105.301452.0712547.424737.1649052l2.583816 2.0141998 2.595614 2.0024207c.34734.2946053.413724.8044193.153377 1.1778946-.097601.1191095-.223268.2121933-.365746.2709158l-3.032149 1.1778946-3.032149 1.307463c-.218173.1010819-.468451.1078283-.691769.018647-.223319-.0891813-.399894-.2663896-.488055-.4898049-.054804-.1424527-.07502-.2958424-.058992-.4475999l.483728-3.2156522z"/>
      <path fill="#FFBE9D" d="M265.252018 141.4106718c.832094 1.0714794 2.251365 1.5012873 3.539473 1.0718841 1.297807-.3298105 2.442237-1.083663 3.716448-1.5077051 3.787236-1.2603472 8.140789.6242841 11.869035-.8127473.519122-.200242 1.097237-.6125051 1.014649-1.1778945-.082588-.5653894-.660702-.7420736-1.179825-.871642l-12.765702-3.5336838"/>
      <path fill="#EB996E" d="M271.493289 134.6024411c.480265.0245317.955723.1076007 1.41579.2473579.908465.200242 2.206272.5064946 3.799035.9187577l5.604167 1.4605893 1.616359.4240421c.685131.0762245 1.312538.419041 1.746141.9540946.188275.386374.132914.8469618-.141579 1.1778946-.24246.2738017-.545402.4875305-.884869.6242841-.608328.238657-1.241513.4085474-1.887719.5064947-2.607412.3651473-5.002456-.1413474-7.137939-.1060105-1.001753-.0172581-2.000304.1177825-2.961359.4004841-.884869.2826947-1.687149.6949578-2.465834 1.0129894-1.222968.6342329-2.66252.7030807-3.940614.1884631-.884868-.4711578-1.038245-1.0601051-1.00285-1.0601051.321689.3297917.701689.597353 1.120833.7891893 1.207475.3804766 2.520027.2305936 3.610263-.4122631.74329-.3298104 1.533772-.7774104 2.48943-1.1189998 1.014361-.325227 2.07295-.4920991 3.138333-.4947157 2.229869-.0706737 4.624912.4004841 7.078948 0 .58476-.0810394 1.158587-.2272246 1.710745-.435821.507325-.2120211.849474-.6007263.6725-.8363052-.176974-.2355789-.731491-.4475999-1.286009-.6007262l-1.604561-.4476-5.568772-1.6254945c-1.580965-.4593789-2.855175-.859863-3.728246-1.1778946-.480669-.0605925-.949772-.1915677-1.392193-.3887052z"/>
      <path fill="#263238" d="M129.2064474 297.42281l1.2860087-6.325294.4719299 7.644536c.0707894.082452.1297807.176684.2005701.270915 13.0960527 4.652684 26.6050439 9.599841 40.5741669 8.669304l-1.380395-61.792349-74.3289473-.56539-5.6041667 36.750311c12.6949123 5.159178 25.5196053 9.988546 38.2263158 15.08883l.5545176.259137z"/>
      <path fill="#455A64" d="M132.981886 286.032569c-.0208571-.961677.042306-1.923339.1887719-2.874063.1769737-1.766842.3657456-4.205083.4483333-6.902462.0825877-2.697379 0-5.147399 0-6.92602-.0803238-.960276-.0803238-1.925566 0-2.885842.2708391.93154.4253864 1.892914.4601316 2.862284.2057574 2.314388.2727337 4.638988.2005702 6.961357-.06408 2.323311-.2729193 4.640389-.625307 6.937799-.1064478.966413-.3323326 1.915951-.6725 2.826947zM139.0933772 267.127361s.1297807-.141347.4365351-.164905c.4429845-.026495.8812793.102694 1.2388158.365147.5571777.389164.8981628 1.017645.9202631 1.696168-.0699873.856364-.642703 1.589447-1.4576059 1.865754-.8149029.276307-1.7163434.043061-2.2942362-.593628-.4034472-.554744-.5133299-1.270008-.2949561-1.919968.1198851-.424331.3876754-.791941.7550877-1.036547.2595614-.153126.4365351-.153126.4483333-.129568.0117983.023557-.6017105.353368-.7904824 1.283905-.1086118.506204.0075597 1.034564.3185526 1.44881.4245695.455135 1.0869206.60052 1.6635526.365147.5986546-.161153 1.0324146-.678931 1.0854386-1.295684-.0030196-.517066-.2312735-1.007224-.625307-1.3428-.4064907-.310896-.8937345-.498934-1.4039912-.541831zM120.0746053 262.380446s-.2241667.259137-.6842983.624284c-.6617163.513193-1.3731459.959082-2.1236842 1.331021-1.1274885.565791-2.3146458 1.00432-3.5394737 1.307463-1.4790951.364723-2.9953018.558385-4.518728.577168-1.5277707-.012148-3.0486559-.205902-4.5305264-.577168-1.2255622-.300757-2.4129827-.739384-3.5394736-1.307463-.7479223-.370012-1.455628-.816045-2.111886-1.331021-.4719298-.365147-.7078947-.577169-.6842983-.612505.0235965-.035337 1.0972369.694957 2.9849562 1.554821 1.1057571.497092 2.2550466.89139 3.4332895 1.177894 1.4451173.32213 2.9201178.491892 4.4007456.506495 1.475929-.026991 2.9457715-.196615 4.3889473-.506495 1.1783184-.286246 2.3276314-.680553 3.4332895-1.177894 1.9821053-.859864 3.0203509-1.660832 3.0911404-1.5666zM166.0759649 267.374719c-.6402915.278338-1.3309449.422657-2.0292982.424042-3.3995077.242595-6.7756361-.721031-9.5329825-2.720937-1.0382456-.765631-1.5455702-1.378136-1.4983772-1.437031 1.9132937 1.298258 3.997894 2.324979 6.194079 3.050747 2.2479207.533498 4.5574093.763277 6.8665789.683179zM151.1157895 272.887265c.2005701 1.413474.4955263 3.451232.8612719 6.066158.3657456 2.614926.8494737 5.889472 1.345 9.59984.4955263 3.710368 1.1208333 8.009684 1.7107456 12.733041.2123684 1.67261.4365351 3.415894.6607018 5.194515l.483728.094232c-.2477631-1.837516-.483728-3.627916-.7196929-5.347642-.6135088-4.711578-1.2506141-8.975557-1.7933334-12.721261-.5427193-3.745705-1.0264473-6.961357-1.4511842-9.588062-.4247368-2.626705-.7432895-4.640905-.9674561-6.054378-.1179825-.6714-.2123684-1.177895-.2713597-1.5666-.0589912-.388705-.1179824-.530053-.1179824-.530053s0 .176684.0589912.541832c.0589912.365147.1179825.906978.2005702 1.578378z"/>
      <path fill="#E8505B" d="M172.258246 215.299999v-.942316.942316z"/>
      <path fill="#3370B6" d="M167.9636842 121.1980007c-.9084649-.7656315-16.2815789-2.7209365-16.2815789-2.7209365-8.07-.2355789-20.2575878-1.8375155-28.964693-.9069788-9.3409965 3.2955598-18.4978415 7.0899257-27.4309211 11.3666827-5.0134905 3.4109675-8.4672594 8.6678666-9.6037719 14.6176718l13.2966228 74.4547171-5.6041667 33.581774c-.8730701 7.632757 27.5607018 11.048652 44.5383772 12.40323 7.8121575.621657 15.6510717-.811975 22.7352193-4.157968l11.9752191-5.665673c.04986.007359.100356-.008412.137126-.042827.036769-.034416.055788-.083708.051646-.133857l-.554517-38.705616 7.019956-74.0660113c.943859-6.5726518-6.205877-15.7366717-11.3145178-20.024208z"/>
      <path fill="#3370B6" d="M152.6731579 120.5148219s15.8214474-.8598631 23.7616671 3.027189c7.940219 3.8870522 42.957412 27.9278811 42.957412 27.9278811l35.890263-13.2748724 12.694912 17.1854824-31.088377 22.615576c-7.452015 5.02633-16.956067 5.914351-25.212851 2.355789l-40.267412-15.925135-18.7356141-43.9119101z"/>
      <path fill="#263238" d="M177.897807 151.28142c.212368 0-.778684 11.778954-2.21807 26.2435-1.439386 14.464545-2.76079 26.172817-2.973158 26.149295-.212368-.023593.778684-11.778981 2.21807-26.231748 1.439386-14.452766 2.772588-26.172818 2.973158-26.161047z"/>
      <path fill="#000" d="M96.24214877 235.5833439l-1.17982456 6.101494c8.60092105 1.0601051 16.51754389 1.7786208 25.16565789 2.8387259l35.3003509 4.3346521c2.7607895.3415894 5.7221491.647842 8.2587719-.6125052 3.7990351-1.943526 5.0260526-6.7493359 5.2384211-11.0015354.2123684-4.25219945-.0825878-8.79887255 2.1118859-12.43856682-25.5667982 2.93295752-49.6116228 6.36063076-74.89526313 10.77773542zM110.40004421 206.3126638c3.38943894-14.0582462 7.9394544-27.8120367 13.60337719-41.12030002-1.4643896 14.52020462-4.06799795 28.90327072-7.7868421 43.01671022" opacity=".3"/>
      <path fill="#263238" d="M109.5033772 148.607608c-1.2033549-2.64493-2.8424424-5.0696779-4.849079-7.1733783-2.1388196-1.9631495-4.5912435-3.5556128-7.255921-4.7115783.8704585.0900516 1.7155362.3459592 2.4894298.7538525 1.9345073.8533677 3.6975116 2.0507285 5.2030263 3.5336837 1.503723 1.4831481 2.7303001 3.2222777 3.6220614 5.1356204.412863.765097.6808396 1.599657.7904825 2.4618zM178.027588 138.7015143c-.521937-2.0212547-.845944-4.0883538-.967456-6.1721677-.32736-2.0678227-.449867-4.1628144-.365746-6.2546202.519875 2.0256743.843845 4.0964808.967456 6.1839466.327042 2.0638983.44955 4.1549516.365746 6.2428413zM221.468728 168.372679c-.509542-.696043-.907572-1.466958-1.179824-2.285116-.771711-1.937739-1.27963-3.970054-1.510176-6.042599-.227871-2.07528-.16832-4.172008.176974-6.231062.083955-.861445.315416-1.702106.684298-2.485358-.376636 2.866023-.459653 5.762913-.247763 8.645746.415113 2.860578 1.110614 5.673541 2.076491 8.398389z"/>
      <path fill="#000" d="M219.32144719 151.71724975c-1.48657894 1.29568404-1.80513158 3.43945219-1.92311403 5.40653615-.16709087 2.93020735-.0921151 5.8691772.22416666 8.7870936.09008602 1.6092966.51606374 3.1820335 1.25061404 4.6173468.2509761.5548109.72075324.9811824 1.29780702 1.1778946 1.02644737.2355789 1.94671052-.871642 1.97030701-1.9199682-.08148998-1.0482691-.42199589-2.0600218-.99105263-2.9447365-2.19984661-4.3885845-2.84450607-9.39209372-1.82872807-14.19362973" opacity=".3"/>
      <path fill="#FAFAFA" d="M168.9783333 122.7057058c-.0076316.275976-.0312676.5512791-.0707894.8245262-.0589913.5418315-.1297807 1.3427998-.2949562 2.3557892-.4542924 2.935676-1.096648 5.8392525-1.923114 8.692862-2.7926132 9.7327222-7.5505075 18.7920058-13.9809211 26.6204178l-.1415789.176684-.2005702-.094232c-2.9377631-1.283905-5.9699123-2.650262-9.0020614-4.169746-11.047419-5.498333-21.4936595-12.1260947-31.1709649-19.7768505-3.7164474-2.9329575-6.5716228-5.4772098-8.5419298-7.2440517l-2.2180702-2.0848734-.5663158-.5536104c-.0661287-.0644177-.1254331-.1354665-.1769737-.2120211.0809802.0459418.1562263.1012956.2241667.1649053l.6017105.5064947c.5663158.4947157 1.3332018 1.1778945 2.2888597 2.0024208 2.0175 1.7079471 4.9198684 4.1933047 8.648114 7.0673675 9.7282116 7.5208722 20.1725685 14.0699718 31.1827632 19.5530498 3.0203508 1.519484 6.0525 2.885842 8.9666666 4.169747l-.3539473.082453c6.3886193-7.762797 11.1689706-16.7152972 14.0635087-26.3377232.852379-2.8300973 1.5495109-5.7045029 2.0882895-8.6104094.2005702-1.0247683.2949561-1.8257366.4011403-2.3557892.0316442-.2645945.090959-.5251526.1769737-.7774104z"/>
      <path fill="#FAFAFA" d="M163.4213596 122.0932006c-.027474.2226782-.0708446.4431127-.1297807.659621-.1179824.424042-.2595614 1.0601051-.4955263 1.8610734-.4483333 1.6137156-1.1798245 3.9459469-2.1944737 6.8082307-2.7370198 7.6048776-6.2684295 14.9009243-10.5358333 21.7674923l-.1651754.270915-.2595614-.176684-5.6277632-3.851715-23.7380702-16.3727348-7.1379386-5.0178309-1.923114-1.3899157c-.2359346-.1467204-.4537365-.3206769-.6489035-.5182736.2515364.1206634.4923066.2625249.719693.4240421l1.9939035 1.295684 7.255921 4.8529257 23.8324562 16.2196082 5.6277631 3.863494-.436535.082453c4.2586006-6.832363 7.8386632-14.0636217 10.6892105-21.5908076 1.0618421-2.826947 1.8405263-5.1356204 2.3596491-6.7257781l.5899123-1.8257366c.0481347-.220447.1234299-.434094.2241666-.6360631zM250.516009 167.171226c-.33878-.08611-.658751-.233854-.94386-.435821-.811055-.476807-1.566804-1.041704-2.253465-1.684389-2.246838-2.165975-3.959283-4.82318-5.002456-7.762325-1.015879-2.911896-1.688972-5.931903-2.005702-8.999115-.208714-1.257021-.29956-2.530735-.271359-3.8045993.331523 1.2246773.568186 2.4730023.707894 3.7339263.433096 3.013831 1.152088 5.979752 2.147281 8.857767 1.017388 2.858006 2.625261 5.47054 4.719298 7.668094 1.651755 1.649052 2.96136 2.332231 2.902369 2.426462zM256.721886 163.826006c-.267863-.187693-.506414-.413946-.707895-.6714-.436535-.459379-1.026447-1.177895-1.722544-2.037758-1.798224-2.323498-3.378011-4.807593-4.719298-7.420736-1.344182-2.610814-2.434607-5.34425-3.256316-8.162809-.318552-1.0718842-.530921-1.9553052-.648903-2.5795893-.103776-.3109308-.147808-.63863-.129781-.9658736.453362 1.1170536.847187 2.2572798 1.179825 3.4158939.939738 2.745648 2.071213 5.42211 3.386096 8.009684 1.335327 2.580909 2.845058 5.068089 4.518728 7.444293.762942.943538 1.464414 1.935009 2.100088 2.968295zM172.954342 248.057248c-.223105.16172-.459976.30361-.707895.424042l-2.088289 1.095442-1.5691668.836305c-.5545175.270915-1.1798245.518273-1.8523245.812747-1.345.565389-2.8551755 1.283905-4.6013158 1.849294l-2.7253948.954095c-.9438596.329811-1.9585087.565389-2.9967543.871642-2.064693.636063-4.3417544 1.071884-6.7132018 1.578379-5.1893709.940458-10.4528853 1.413473-15.7270614 1.413473-5.2766021-.080853-10.5356252-.628757-15.7152632-1.637273-2.3596491-.541832-4.6367105-1.001211-6.6896052-1.67261-1.0382456-.318032-2.0528948-.577169-2.9967544-.918758l-2.7017983-.989432c-1.7461403-.588947-3.2327193-1.331021-4.565921-1.908189-.6725-.306252-1.297807-.565389-1.8523246-.848084l-1.5101754-.800968-2.064693-1.177895c-.2479188-.120432-.4847897-.262322-.7078947-.424042.2658478.079554.5228212.186122.7668859.318032l2.111886 1.036547 1.5337719.753852c.5663158.259137 1.1798246.506495 1.8523246.78919 1.345.55361 2.8433772 1.260347 4.5895175 1.813957l2.7017983.954095c.9438596.32981 1.9467105.577168 2.9849561.871642 2.0410965.647842 4.3063597 1.095442 6.6542105 1.613716 5.1483721.969902 10.3704683 1.497957 15.609079 1.578378 5.2358879-.011291 10.46145-.464431 15.6208772-1.354578 2.3596491-.494716 4.6249123-.8952 6.6896053-1.519484 1.0264473-.282695 2.0410964-.518274 2.9849561-.824527l2.7253947-.918757c1.7461404-.530053 3.2563158-1.177895 4.6013158-1.755063.6725-.270916 1.3096053-.506495 1.8759211-.765632l1.5337722-.730295 2.135482-1.00121c.256678-.140209.530254-.247085.814079-.318031z"/>
      <path fill="#D67DEC" d="M126.3984649 165.804869c-1.979365-.46552-3.9645892.748901-4.4479386 2.720936v.106011l3.8816228.647842.5663158-3.474789z"/>
      <path fill="#D67DEC" d="M166.1113596 238.257165l-.5191228-.082453-49.9065789-8.951999 10.7010088-63.417844 51.0982013 8.59863-10.6892101 63.35895c-.0599131.320417-.3606844.537861-.6842983.494716z"/>
      <path fill="#F6F8FF" d="M165.6158333 238.704765l10.6538157-63.182266-49.8003946-8.374831-1.9349123 1.919969-8.7660965 61.486097 46.1075439 7.538525.0353947 1.955305z"/>
      <path fill="#D67DEC" d="M121.9387281 168.631816l51.0864039 8.59863-10.6184215 62.817118c-.0599676.325631-.3682727.544744-.6960965.494716l-48.5733772-8.174588c-1.0452115-.179855-1.7472502-1.170587-1.5691666-2.214442l10.3824561-61.521434h-.0117982z"/>
      <path fill="#E6C5EC" d="M130.407002 195.82898546l2.36898284-14.04297337 29.38848004 4.9414913-2.36898382 14.04297311z"/>
      <path fill="#FFBE9D" d="M136.3797807 213.980757l8.2587719-.906979s3.4214913-5.665673 5.6631579-7.644535c2.2416667-1.978863 13.8511404-7.514968 13.8511404-7.514968.9751805 1.179641.9751805 2.884095 0 4.063736-.766886.918758-6.2530702 3.993063-6.2530702 3.993063-.3024061 1.051817-.0397875 2.184971.6946457 2.997277s1.8367151 1.188774 2.9156175.995786c3.3978947-.624284 7.3621052-1.331021 7.8812281-1.331021.519123 0 3.976009-3.203873 6.465439-5.630336.664509-.642629 1.67061-.778651 2.482379-.335609.81177.443041 1.240207 1.361994 1.057094 2.267356-.047684.190179-.150243.362197-.294956.494716 0 0 3.539474-.11779.389342 4.711578 0 0 .731491 4.428883-1.887719 6.466641 0 0-1.179825 5.35942-2.819781 7.208715-1.639956 1.849294-18.0631139 5.394757-18.0631139 5.394757l-23.5964912 2.850505 3.2563158-18.080682z"/>
      <path fill="#EB996E" d="M163.0320175 215.076199c.9748655.162978 1.9679872.186774 2.9495614.070674 2.4155302-.052551 4.7844571-.674083 6.9137721-1.813958 2.026024-1.332489 3.685096-3.150838 4.825482-5.288747.549382-.819062.971056-1.716632 1.250614-2.662041-.647493.726356-1.220594 1.515547-1.710745 2.355789-1.196885 1.960207-2.807367 3.636388-4.719298 4.91182-2.045017 1.072005-4.2826302 1.728579-6.5834215 1.931747-.9917156.046689-1.9741522.212797-2.925965.494716zM164.7309649 218.857241c.8659868.288352 1.7894199.361135 2.69.212021.9762546-.072904 1.9461271-.214605 2.9023681-.424042 1.209855-.228006 2.3614-.696683 3.386097-1.378137.936036-.766796 1.782942-1.636022 2.524824-2.591368l1.805132-2.249779c.617521-.654479 1.134401-1.396776 1.533772-2.202663-.72639.525496-1.377391 1.147691-1.934912 1.849295-.566316.600726-1.179825 1.331021-1.934913 2.155547-.73681.88677-1.558735 1.69946-2.454035 2.426463-.943115.626084-1.995703 1.069605-3.102938 1.307463-.91683.240205-1.8464142.428963-2.7843863.565389-1.6163597.259137-2.6192105.2238-2.6310088.329811zM167.0434211 223.085882c0 .306253 2.9849559-.318031 6.4654389-1.283905.481211-.147.918807-.409937 1.27421-.765631.330351-.306253.625307-.612505.896667-.906979.470342-.53812.89646-1.113226 1.27421-1.719726.637106-1.048326.814079-1.802179.719693-1.825737-.094386-.023558-.448333.600726-1.179824 1.519484-.414444.54284-.86372 1.05827-1.345 1.543042-.269607.292485-.557258.567864-.861272.824526-.273617.275525-.609424.481527-.979255.600727-1.769736.471157-3.327105.965873-4.4597364 1.33102-.6254836.159375-1.2310073.388544-1.8051315.683179z"/>
      <path fill="#3370B6" d="M102.7429825 203.839085l7.5390789-40.696258c.0825877-.659621-4.4125439-18.4693872-24.3987719-20.460029l-9.01385968 30.625259c-2.35964912 9.646957-5.8991228 23.110292-7.3975 40.660921-.95565789 10.907304 9.54478068 20.978303 21.81495618 22.674471l.4955263.070674c21.0008772 2.56781 41.2938596-.78919 44.0192544-1.519484l2.9495614-22.250429c.2477631.082453-36.0082456-9.105125-36.0082456-9.105125z"/>
      <path fill="#263238" d="M83.028114 208.008832c-.0286081-.167624-.0286081-.338871 0-.506495.0934511-.477792.2276534-.946732.4011404-1.401695.6286461-1.718648 1.6555114-3.264498 2.9967544-4.511336 2.0397732-1.947624 4.7296753-3.072178 7.5508772-3.156757 3.5846193-.111315 7.0367106 1.357732 9.4385965 4.01662l-.5191229.153127c.3657457-2.438242.7550878-5.017831 1.1798246-7.656315 1.4275877-9.128683 2.7253947-17.385724 3.6810526-23.46366.4837281-2.944737.8848685-5.347642 1.1798246-7.067368.141579-.789189.2595614-1.425252.3539474-1.931747.024083-.226469.0796767-.44848.1651754-.659621a4.233504 4.233504 0 010 .683179c0 .506494-.1415789 1.177894-.2359649 1.943526-.2477632 1.766842-.578114 4.181526-.9910526 7.126262-.9084649 6.089715-2.1354825 14.358535-3.5394737 23.487218l-1.1798246 7.668094-.0943859.636063-.4247369-.482937c-2.2728896-2.528445-5.5286048-3.953979-8.9312719-3.91061-2.7097105.062907-5.3045735 1.105014-7.3031141 2.932958-1.3272963 1.194623-2.3746388 2.666547-3.0675438 4.311094-.4955263 1.071884-.6135088 1.7904-.6607018 1.7904z"/>
      <path fill="#263238" d="M103.4036842 203.297253c.2240815.043484.4448514.102522.6607018.176685l1.923114.588947c1.6635526.518273 4.1175877 1.260347 7.2205263 2.143768 6.2176755 1.755063 15.1017544 4.01662 25.6139912 6.431304l.2477632.058895v.247358c-.8140789 6.867125-1.7225439 14.41743-2.6782018 22.379997v.235579h-.2359649l-1.4747807.2238c-7.8180002 1.148266-15.6973284 1.832647-23.5964912 2.049537-6.4427786.333507-12.9027594.045551-19.2901316-.859863-4.3381002-.64343-8.4754154-2.25378-12.105-4.711579-.5598849-.39582-1.09568531-.824545-1.60456138-1.283905-.38328639-.322383-.74581928-.668587-1.08543859-1.036547l-.61350878-.683179c-.14157894-.153126-.20057017-.235579-.18877193-.247358l.23596492.212021.66070175.636063c.34789512.349716.71836695.6763 1.10903509.977653.51560277.428696 1.05955422.822219 1.62815792 1.177894 3.6388997 2.381948 7.7606043 3.930589 12.0696052 4.534894 5.4035965.918758 11.9516228.918758 19.2075439.718516 7.8636329-.252914 15.7064448-.952932 23.490307-2.096652l1.4629825-.2238-.2477632.270916 2.7253947-22.379998.2123685.306253c-10.5122369-2.450021-19.3845176-4.794031-25.5785965-6.643325-3.1029386-.930537-5.5333772-1.719727-7.1851316-2.35579-.8376754-.282694-1.4629825-.518273-1.8877193-.671399-.2368572-.037996-.4698229-.097128-.6960965-.176685z"/>
      <path fill="#000" d="M103.2503069 202.34315886c-1.6749951-.63018641-3.54771971-.4519164-5.0732456.48293678-3.60500928 1.85327496-6.22354461 5.1812864-7.17333334 9.11690406-.23119005.8088214-.26356755 1.6613811-.09438596 2.4853576.1767785.8386274.79578001 1.5152576 1.61635965 1.7668419 1.04811011.1493308 2.08141523-.3548067 2.60741228-1.2721262.50516201-.9019568.87109503-1.8748582 1.0854386-2.8858417 1.18315793-3.84135587 3.64269691-7.16523489 6.97276317-9.42315669" opacity=".3"/>
      <path fill="#FAFAFA" d="M117.8565351 236.478544c-.176234-.337565-.3033611-.698492-.3775439-1.071884-.2762931-.984117-.496876-1.982981-.6607017-2.991853-1.1390289-6.739244-.4212637-13.660861 2.0764912-20.024207.3652058-.958441.7867425-1.894531 1.2624123-2.80339.1502921-.347985.3488758-.673129.5899123-.965873.0943859 0-.6017106 1.484147-1.4511842 3.91061-2.216152 6.338969-2.9191119 13.106998-2.0528948 19.765071.3185526 2.603147.7078948 4.157968.6135088 4.181526zM125.9737281 236.608112s-.4365351 0-.9084649-.624284c-.5532617-.86192-.8517821-1.862165-.861272-2.885842-.2766029-3.256925-.2766029-6.531379 0-9.788304.2489314-3.259651.7818678-6.491451 1.5927632-9.658735.3185526-1.177895.6135088-2.179105.8376754-2.838726.0867102-.358068.2300915-.70003.4247369-1.01299.0825877 0-.3185527 1.519484-.8376755 3.957726-1.3555349 6.344496-1.8751208 12.838595-1.5455701 19.317471-.0370751.961352.1785027 1.915653.625307 2.768053.3185526.577168.7078947.718515.6725.765631z"/>
      <path fill="#FFBE9D" d="M121.1836404 72.9278806l1.6045614 46.5975098c.2691607 7.9486068 6.9394172 14.1755954 14.9011842 13.9109351 7.6332289-.2461686 13.7547199-6.3834545 13.9691228-14.0051667.1179824-4.1697468.2005701-7.6563148.2005701-7.6563148s11.621272-1.2367893 12.3055702-12.7448194c.3303509-5.5478835.094386-17.0205767-.2595614-27.409607-.3820751-11.6343864-9.9428783-20.8667646-21.6025877-20.86051625-5.7707744.06564228-11.2698323 2.45780192-15.2471599 6.63271035-3.9773277 4.1749083-6.0950215 9.777876-5.8716997 15.5352689z"/>
      <path fill="#EB996E" d="M151.8708772 111.8101809c-5.3296671-.1520233-10.492971-1.8867129-14.8303947-4.9824941 0 0 3.1619298 8.4572831 14.7124122 7.9625674l.1179825-2.9800733z"/>
      <path fill="#263238" d="M160.1178509 79.6183219c-.0320002.8903757-.7712449 1.5917711-1.6635527 1.5783787-.4343254.0261484-.860027-.1289229-1.1754289-.4281762s-.4921842-.7158188-.4881237-1.1502025c.0319117-.8922544.7692939-1.5971037 1.6635526-1.5901577.4354728-.0227595.8610235.1350652 1.1759997.4361448.3149761.3010796.4914035.7186742.487553 1.1540129zM161.1442982 77.2625327c-.2123684.2002421-1.4157894-.7774104-3.1855263-.8598631-1.7697368-.0824526-3.1147368.7420736-3.3035087.5182737-.188772-.2238.1415789-.4829368.7314912-.8598631.787105-.4994092 1.7118419-.7384583 2.642807-.6831788.9229695.0362864 1.8091085.3711455 2.5248246.9540946.530921.4475999.6960965.8480841.5899122.9305367zM143.3289474 79.6183219c-.0381159.8941209-.7789829 1.5973141-1.6753509 1.5901577-.4253743.012693-.8379113-.1463594-1.1443305-.4411934-.3064193-.2948341-.4808415-.7005488-.4838274-1.1254064.0319117-.8922544.7692938-1.5971037 1.6635526-1.5901577.42648-.0126654.840219.1460288 1.1484995.4405196.3082804.2944909.4853243.7001535.4914567 1.1260802zM143.7064912 76.7795959c-.2123684.2002421-1.4157894-.7774104-3.1855263-.859863-1.7697368-.0824527-3.1147368.7420736-3.3035088.5182736-.1887719-.2238.141579-.4711579.719693-.8598631.7923474-.4973945 1.7201484-.7361697 2.6546053-.6831788.9229694.0362864 1.8091085.3711455 2.5248245.9540946.5309211.435821.6960965.8363051.5899123.9305367zM149.5230263 90.2193731c.9456292-.2588731 1.9218335-.3896132 2.9023684-.3887052.4483334 0 .8848685-.0942316.9792544-.4004841.0543818-.4660846-.0318921-.9377641-.2477631-1.3545788-.3618129-1.1072209-.7550878-2.2851155-1.1798246-3.5336838-1.6281579-4.9824941-2.784386-9.0815672-2.5838158-9.140462.2005702-.0588947 1.6871491 3.922389 3.315307 8.9048831l1.1090351 3.5336838c.2664905.5585966.3209864 1.1947369.1533772 1.7903997-.1516492.3102328-.4319782.5384348-.766886.6242842-.2556514.0555109-.5171972.0792489-.7786842.0706736-.9681924.081887-1.9427579.0462905-2.9023684-.1060105zM144.2492105 91.1852467c.2831579 0 .2005702 1.9199682 1.7815351 3.3569996 1.5809649 1.4370313 3.6810526 1.3310208 3.6810526 1.5665998 0 .2355789-.4719298.3533683-1.3332017.3415894-1.121497-.024678-2.1987482-.4415342-3.0439474-1.1778946-.8053397-.7264643-1.2996533-1.7345644-1.3803947-2.8151681-.0825877-.8245262.1533772-1.295684.2949561-1.2721261zM144.4969737 69.8653547c-.2005702.4711578-1.9585088.1649052-4.0467983.3062526-2.0882894.1413473-3.8108333.647842-4.0585965.2002421-.1179824-.2120211.2005702-.6478421.8966667-1.0836631.9284523-.5385754 1.9716998-.8494229 3.0439474-.9069788 1.0687571-.0806967 2.1412463.0970857 3.1265351.5182736.7550877.3415895 1.1208333.7420736 1.0382456.9658736zM160.7313596 72.1151334c-.3303508.3887052-1.5219736-.0824527-2.9967543-.1766842-1.4747807-.0942316-2.7253948.1413473-2.9849562-.2944737-.1179824-.2002421.094386-.6007262.6607018-.9540946.7448306-.4339525 1.6073361-.6234758 2.4658333-.5418315.8628424.0550321 1.6873121.3760494 2.3596491.9187578.4955263.435821.6489035.859863.4955263 1.0483262zM134.2914912 61.0782611H134.2325c-1.9086946 1.3595164-3.2187339 3.4015223-3.6574561 5.7010098v.2355789c-.6135088 3.262768-.6842983 6.6079886-1.3214035 9.8589777-.4764058 3.3148271-2.0505529 6.3750388-4.4715351 8.692862-1.0500439.883421-2.8433772 1.4370314-3.6102632.3062526-.2605567-.4621439-.379523-.990473-.3421491-1.519484-.2359649-7.9625674-2.0764912-15.1006086-1.6753509-23.3929865.1114736-2.2548015 1.2952064-4.3207567 3.1855263-5.5596624 1.7933334-1.1778946 3.9760088-2.35578918 5.8991228-1.34279984 1.9231141 1.01298934 4.223772 4.71157834 5.6513597 6.33707284"/>
      <path fill="#FFBE9D" d="M124.8175 78.511101c-.2005702-.0942316-7.8222368-2.7091576-7.9402193 5.1709572-.1179825 7.8801148 7.8340351 6.3841886 7.8458333 6.1486097.0117983-.2355789.094386-11.3195669.094386-11.3195669z"/>
      <path fill="#EB996E" d="M122.3634649 86.8152578s-.1415789.0942315-.3775438.1884631c-.3291922.132947-.6972553.132947-1.0264474 0-1.0269884-.6744695-1.6090118-1.8501253-1.5219737-3.0743049-.015162-.6786235.1261217-1.3516458.4129386-1.9670839.1587522-.4964149.5510536-.8836739 1.0500439-1.0365472.3258349-.0760205.6604833.0861168.8022807.3887052.1061842.2237999 0 .3769262.0943859.4004841.094386.0235579.1651755-.1295684.1061842-.4593789-.0384581-.1938434-.1426186-.3685467-.2949561-.4947157-.2111123-.172622-.4847963-.2494697-.7550877-.212021-.6606919.1096074-1.2157174.5564765-1.4629825 1.1778946-.3445651.6741983-.5187336 1.422302-.5073245 2.179105-.1135687 1.4353714.6565361 2.7959942 1.9467105 3.4394521.427372.1352359.893359.0656696 1.2624123-.1884631.2477631-.1531263.2949561-.3298105.2713596-.3415894z"/>
      <path fill="#263238" d="M126.9765789 56.519809c-2.2652631-2.92117853 2.5366229-7.99790419 6.2766667-9.64695661 3.7400439-1.64905242 9.0492544-.30625259 12.9780702.55361046 2.5248246.53005256 5.0732456 1.38991561 7.6216667 1.01298934 1.6937604-.36129474 3.3241068-.97266704 4.8372807-1.81395766 1.5163392-.83449793 3.1856046-1.35529005 4.9080701-1.53126296 1.7614422-.16016958 3.464719.6764354 4.4125439 2.16732603.4151071.75427256.4833237 1.65088178.1870952 2.45909787-.2962284.80821609-.9279738 1.44911295-1.7326654 1.75776475 1.4143442-.93772018 3.275738-.84554531 4.590194.22730304 1.314456 1.07284835 1.774959 2.87578719 1.135599 4.44604354-.63936 1.5702563-2.229248 2.5410685-3.9206614 2.3940209 1.0264474-.9658735 2.8905704.2473579 2.9023684 1.6490524-.156343 1.4264841-1.052595 2.6657628-2.3596491 3.2627681-3.1147368 1.7903997-6.9727632 1.7432839-10.4886404.9776525-3.5158771-.7656315-6.8547807-2.2026629-10.3352631-3.050747-3.4804825-.8480841-9.367807-2.4382418-12.6005263-.883421-2.3596492 1.1778946-3.7872369 4.3110942-5.2620176 3.8045996-1.4212385-.5856514-2.4745003-1.8168282-2.8315789-3.3098838-.3564286-1.4636025-.4719877-2.9753478-.3421491-4.4759995"/>
      <path fill="#455A64" d="M166.1113596 52.04380962s.141579.07067367.3893422.24735786c.362805.25802787.6450439.61331213.8140789 1.02476829.635812 1.55138403.0324356 3.33345263-1.4157895 4.18152573-.9704768.58196-2.0772154.8988144-3.2091228.9187578-1.2989489.011857-2.592064-.1748414-3.8344298-.5536104-2.8238194-.9953229-5.5236757-2.3114248-8.0464035-3.922389-2.5588477-1.62440387-5.4134092-2.72913726-8.4003509-3.25098905-1.3206126-.16956792-2.6613883-.08965255-3.9524123.23557891-1.1164912.3051892-2.1707103.80352942-3.1147368 1.47236824-1.3598498.93716282-2.4663586 2.19562914-3.2209211 3.6632522-.2772927.5394089-.4797225 1.1140031-.6017105 1.7079471 0 0 .1887719-.6242841.719693-1.6490524.7773409-1.43992131 1.8901337-2.67209077 3.2445175-3.5925785.9260283-.64395002 1.9613666-1.11487691 3.0557456-1.38991561 1.2574803-.31041144 2.5621614-.38233121 3.8462281-.21202103 2.9358996.53965316 5.7400179 1.63946901 8.2587719 3.23921011 2.5369655 1.63024633 5.2625927 2.94732363 8.117193 3.92238893 1.2685844.3870568 2.5908137.5699576 3.9170176.5418316 1.1725145-.0180723 2.3197533-.3429978 3.3271052-.9423157.423771-.2881317.7948978-.6466991 1.0972369-1.0601051.264202-.3735896.4452322-.7993188.530921-1.2485683.1509912-.7176059.0683144-1.46460715-.2359649-2.1319892-.1882448-.42062211-.4958913-.77690818-.8848684-1.02476829-.124986-.07694184-.2599592-.13639143-.4011404-.17668419zM138.1967105 48.06252592h-.5073245c-.464453.02761886-.9239225.11066262-1.3685965.24735786-3.0736527.85623118-5.2986594 3.51812243-5.5923684 6.69044122-.0549516.4616811-.0549516.9282345 0 1.3899156-.000076.1743466.0360807.3468128.1061842.5064947 0 0 0-.7302946.1179824-1.8728524.4045903-3.02962948 2.5153058-5.55834483 5.427193-6.50197809 1.0972368-.37692627 1.8287281-.40048416 1.8169298-.45937889zM119.2841228 68.2634181c.199621.1084098.4217933.1689031.6489035.1766841.6194373.0515032 1.240091-.0839144 1.7815351-.3887052.8132393-.4309238 1.4696696-1.1068891 1.8759211-1.9317471.4952603-.9810808.8601545-2.022496 1.0854386-3.0978627.2225295-1.0540972.5793805-2.0753966 1.0618421-3.0389681.39028-.7701387 1.0025385-1.40601 1.7579386-1.8257366.5095516-.2905316 1.088702-.4371183 1.6753508-.424042.4129386 0 .6371053.1060105.6489035.0824526-.1921254-.1191682-.4112504-.1880391-.6371052-.2002421-.6173234-.0704092-1.2416609.0444122-1.7933334.3298105-.8234969.4163704-1.4959269 1.0794633-1.923114 1.8964103-.4980411.982231-.8706313 2.0229854-1.1090351 3.0978627-.2219979 1.0495613-.5664992 2.0695146-1.0264473 3.0389681-.3775011.7833972-.9816335 1.4357776-1.7343422 1.8728524-.4985069.3101639-1.0762542.4697049-1.6635526.4593788-.4129386 0-.6371052-.0824526-.6489035-.0471157zM119.6970614 73.4697121h.2005702c.1868644.0368735.3761096.0604905.5663158.0706737.7043493.0499092 1.4122145-.0056745 2.1000877-.1649052 2.3004374-.546319 4.3149395-1.9277115 5.6513596-3.8752732 1.3118472-1.9353955 2.1225839-4.1653214 2.3596492-6.4901992.0184795-.3976415.0777813-.7923402.1769736-1.1778946.0726375-.2791246.2341151-.5271453.4601316-.7067367.1915988-.1543069.4267442-.2449163.6725-.2591368-.2614894-.0786341-.5450508-.0211299-.7550877.1531263-.2585061.1879585-.4522478.4513455-.5545175.7538525-.1205022.3831075-.1996073.7779857-.235965 1.1778946-.2831354 2.2665942-1.0910151 4.4362357-2.3596491 6.3370728-1.2931201 1.8845672-3.2177086 3.2462835-5.427193 3.8399364-.9308365.2476725-1.8920796.3626743-2.8551754.3415894z"/>
    </g>
  </g>
</svg>
